<?xml version="1.0" encoding="utf-8"?>
<!-- Generator: Adobe Illustrator 15.0.2, SVG Export Plug-In . SVG Version: 6.00 Build 0)  -->
<!DOCTYPE svg PUBLIC "-//W3C//DTD SVG 1.1//EN" "http://www.w3.org/Graphics/SVG/1.1/DTD/svg11.dtd">
<svg version="1.1" id="Layer_1" xmlns="http://www.w3.org/2000/svg" xmlns:xlink="http://www.w3.org/1999/xlink" x="0px" y="0px"
	 width="470.902px" height="168.216px" viewBox="0 0 470.902 168.216" enable-background="new 0 0 470.902 168.216"
	 xml:space="preserve">
<pattern  width="72" height="72" patternUnits="userSpaceOnUse" id="_x31_0_lpi_40_x25_" viewBox="20 -72 72 72" overflow="visible">
	<g>
		<polygon fill="none" points="20,0 20,-72 92,-72 92,0 		"/>
		<line fill="none" stroke="#231F20" stroke-width="2.88" x1="19.75" y1="-3.6" x2="92.25" y2="-3.6"/>
		<line fill="none" stroke="#231F20" stroke-width="2.88" x1="19.75" y1="-18" x2="92.25" y2="-18"/>
		<line fill="none" stroke="#231F20" stroke-width="2.88" x1="19.75" y1="-32.4" x2="92.25" y2="-32.4"/>
		<line fill="none" stroke="#231F20" stroke-width="2.88" x1="19.75" y1="-46.8" x2="92.25" y2="-46.8"/>
		<line fill="none" stroke="#231F20" stroke-width="2.88" x1="19.75" y1="-61.2" x2="92.25" y2="-61.2"/>
		<line fill="none" stroke="#231F20" stroke-width="2.88" x1="0" y1="-61.2" x2="14" y2="-61.2"/>
		<line fill="none" stroke="#231F20" stroke-width="2.88" x1="19.75" y1="-10.8" x2="92.25" y2="-10.8"/>
		<line fill="none" stroke="#231F20" stroke-width="2.88" x1="19.75" y1="-25.2" x2="92.25" y2="-25.2"/>
		<line fill="none" stroke="#231F20" stroke-width="2.88" x1="19.75" y1="-39.6" x2="92.25" y2="-39.6"/>
		<line fill="none" stroke="#231F20" stroke-width="2.88" x1="19.75" y1="-54" x2="92.25" y2="-54"/>
		<line fill="none" stroke="#231F20" stroke-width="2.88" x1="19.75" y1="-68.4" x2="92.25" y2="-68.4"/>
		<line fill="none" stroke="#231F20" stroke-width="2.88" x1="0" y1="-68.4" x2="14" y2="-68.4"/>
	</g>
</pattern>
<g>
	<g>
		<g>
			<pattern  id="SVGID_1_" xlink:href="#_x31_0_lpi_40_x25_" patternTransform="matrix(0.2648 0 0 0.2648 -5680.8545 -5761.6831)">
			</pattern>
			<path fill="url(#SVGID_1_)" d="M9.253,144.676c-0.191-0.693,0.17-1.322,1.097-1.891c4.238-2.608,6.599-5.277,7.088-8.001
				l4.675-25.661c-4.432,2.408-8.065,4.074-10.888,5.002c-0.437-2.351,0.122-4.526,1.681-6.532
				c-1.118-1.879-1.313-3.985-0.584-6.317c0.731-2.38,1.461-3.637,2.194-3.778c-0.342,1.139-0.365,1.994-0.075,2.572
				c0.244,0.636,1.069,0.939,2.483,0.915c1.802-0.197,4.167-0.918,7.088-2.156l10.008-55.245c0.487-2.67-1.048-4.569-4.602-5.694
				c-0.781-0.24-0.928-0.798-0.439-1.672l9.132-1.738c1.315-0.008,2.485,0.621,3.504,1.885c0.246-0.532,0.54-0.977,0.881-1.334
				c2.239-2.376,3.993-2.709,5.26-1.005c-2.048,0.735-3.216,1.856-3.508,3.374l0.803,4.084l0.877,4.652l0.292,1.259l7.16,36.771
				c2.678-0.998,4.772-1.448,6.282-1.346c5.553,0.452,8.839,3.332,9.863,8.637c0.292,2.918-0.975,5.424-3.797,7.521
				c-2.875,2.108-4.776,1.839-5.698-0.814c-1.269-3.503-0.124-6.114,3.432-7.813c-0.487-2.292-2.703-2.92-6.648-1.874
				c-0.538,0.152-1.34,0.5-2.413,1.046l7.964,40.854c1.996,8.626,4.115,13.896,6.358,15.81c2.092,1.742,3.821,1.898,5.184,0.47
				c-1.557-2.084-1.143-4.14,1.243-6.154c1.752-1.455,3.07-1.121,3.944,1c0.926,2.163,0.658,4.186-0.802,6.07
				c-2.682,3.387-6.089,4.427-10.229,3.123c-1.462-0.452-4.287-3.834-8.473-10.146c-0.099,0.163-0.17,0.298-0.221,0.406
				c-1.558,2.247-4.484,3.362-8.767,3.356c2.043-1.465,2.947-2.928,2.703-4.391l-0.729-3.732l-1.023-5.139
				c-2-10.185-4.314-22.069-6.943-35.645c-6.379,4.049-9.935,6.282-10.666,6.711l-4.749,26.041l-0.95,5.44l-0.731,4.082
				c-0.29,1.52,0.563,2.087,2.558,1.707c-2.972,2.512-5.236,2.946-6.794,1.298c-0.195-0.258-0.342-0.645-0.437-1.158
				c-1.561,1.808-3.047,2.941-4.461,3.402L9.253,144.676z M35.627,93.104c5.455-2.939,8.036-4.335,7.746-4.183
				c-0.732-3.707-1.951-9.902-3.656-18.585L35.627,93.104z"/>
			<pattern  id="SVGID_2_" xlink:href="#_x31_0_lpi_40_x25_" patternTransform="matrix(0.2648 0 0 0.2648 -5680.8545 -5761.6831)">
			</pattern>
			<path fill="url(#SVGID_2_)" d="M76.834,132.146l-0.075-0.35v-0.221v-0.077l0.075-0.308l0.07-0.156l0.075-0.159l0.074-0.015
				l0.071-0.084l0.076-0.089v-0.073l0.145-0.101l0.145-0.103l0.145-0.101l0.073-0.016l0.149-0.099l0.072-0.087l0.145-0.028
				l0.073-0.086l0.22-0.117l0.072-0.012l0.22-0.116l0.145-0.025l0.074-0.087l0.145-0.031l0.22-0.115l0.145-0.1l0.076-0.084
				l0.143-0.029l0.147-0.101l0.071-0.087l0.149-0.029l0.147-0.101l0.072-0.085l0.145-0.101l0.147-0.104l0.147-0.103l0.073-0.087
				l0.145-0.101l0.147-0.099l0.147-0.103l0.072-0.087l0.145-0.101l0.145-0.172l0.073-0.089l0.149-0.101l0.145-0.175l0.073-0.086
				l0.145-0.176l0.074-0.084l0.147-0.176l0.073-0.16l0.074-0.162l0.143-0.098l0.075-0.16l0.074-0.16l0.147-0.246l0.071-0.162
				l0.074-0.161l0.069-0.161c0-0.046,0.025-0.124,0.078-0.23l0.069-0.161c0-0.05,0-0.124,0-0.22c0.05-0.06,0.076-0.112,0.076-0.161
				l0.073-0.232l0.072-0.234v-0.22c0-0.047,0.025-0.126,0.073-0.232l0.076-0.746v-0.217V97.901l-2.779-2.247
				c-0.195-0.11-0.195-0.28,0-0.512l2.779-3.305V34.193c0-2.58-2-4.39-5.994-5.432c-0.876-0.223-1.143-0.754-0.801-1.599
				l9.347-1.785c1.367-0.016,2.73,0.576,4.093,1.775c0.147-0.512,0.368-0.943,0.658-1.292c1.898-2.311,4.068-2.75,6.502-1.315
				c-2.046,0.439-3.067,1.388-3.067,2.85v32.73c2.773-4.814,6.499-7.67,11.178-8.562c6.329-1.207,11.151,0.259,14.463,4.399
				c2.241,2.887,3.264,5.466,3.07,7.744v20.676l2.773,2.169c0.195,0.161,0.195,0.331,0,0.513l-2.773,3.306v19.141
				c0.193,1.864-1.05,4.803-3.726,8.825c-3.558,5.352-8.162,8.589-13.808,9.72l-1.243,0.234c-4.045,0.82-7.355-1.008-9.935-5.482
				v2.485c0,1.46,1.021,2.019,3.067,1.679c-2.435,2.364-4.604,2.753-6.502,1.168c-0.29-0.238-0.511-0.582-0.658-1.043
				c-1.363,1.721-2.726,2.833-4.093,3.338L76.834,132.146z M94.368,95.923v14.904c2.483,6.006,5.89,8.593,10.225,7.766
				c0.735-0.14,1.388-0.385,1.974-0.741c1.607-1.133,2.705-2.56,3.289-4.279c0.876-2.604,0.072-4.401-2.413-5.389
				c1.414-0.853,2.8-1.019,4.167-0.499c0.826,0.327,1.655,0.924,2.482,1.792v-0.147l-0.075-0.427l-0.074-0.274l-0.073-0.279
				l-0.072,0.012v-0.145l-0.073-0.058l-0.07-0.208l-0.075-0.13v-0.071l-0.072-0.064l-0.073-0.056v-0.147l-0.073-0.058l-0.074-0.06
				l-0.073-0.06v-0.073l-0.074-0.058v-0.072l-0.071-0.06l-0.074,0.011v-0.071l-0.147-0.118l-0.069-0.06v-0.071l-0.076-0.06
				l-0.073-0.06l-0.074-0.058l-0.073-0.062l-0.074-0.058l-0.071-0.06c-0.05-0.039-0.122-0.093-0.223-0.178
				c0.149-1.195,0.223-2.231,0.223-3.107V92.494l-2.85-2.307c-0.147-0.118-0.147-0.288,0-0.51l2.85-3.318V74.229
				c-0.05-9.339-2.63-13.523-7.746-12.545l-0.947,0.251c-3.703,1.34-6.114,3.968-7.234,7.883c-1.269,4.283-0.317,8.558,2.85,12.825
				c-3.799,0.479-6.309-1.305-7.525-5.358l0.073,0.787l0.072,0.572v0.071v0.221c0.487,2.73,1.317,4.594,2.486,5.588v5.261
				l2.849,2.231c0.145,0.168,0.145,0.338,0,0.511L94.368,95.923z"/>
			<pattern  id="SVGID_3_" xlink:href="#_x31_0_lpi_40_x25_" patternTransform="matrix(0.2648 0 0 0.2648 -5680.8545 -5761.6831)">
			</pattern>
			<path fill="url(#SVGID_3_)" d="M149.527,79.555l2.483,2.011c0.191,0.158,0.191,0.327,0,0.508l-2.483,2.96v29.737
				c0,1.459,1.021,2.021,3.063,1.678c-2.382,2.353-4.554,2.74-6.502,1.164c-0.29-0.236-0.509-0.582-0.654-1.042
				c-1.365,1.721-2.729,2.835-4.093,3.339l-9.351,1.785v-0.147l-0.071-0.06v-0.582v-0.076l0.071-0.234l0.072-0.012v-0.075
				c0.149-0.271,0.391-0.511,0.734-0.721c3.989-2.566,5.989-5.138,5.989-7.721V87.74l-3.14-2.539c-0.149-0.118-0.149-0.29,0-0.514
				l3.14-3.668V53.552c0-2.583-2-4.393-5.989-5.434c-0.877-0.22-1.146-0.756-0.806-1.601l9.351-1.785
				c1.413-0.073,2.825,0.366,4.238,1.309c0.147-0.317,0.317-0.593,0.509-0.827c1.904-2.309,4.072-2.748,6.502-1.313
				c-2.042,0.439-3.063,1.388-3.063,2.85V79.555z M150.183,26.17c0,5.312-2.292,8.4-6.868,9.274
				c-4.53,0.864-6.793-1.357-6.793-6.667c0-5.306,2.263-8.394,6.793-9.26C147.892,18.646,150.183,20.864,150.183,26.17z"/>
			<pattern  id="SVGID_4_" xlink:href="#_x31_0_lpi_40_x25_" patternTransform="matrix(0.2648 0 0 0.2648 -5680.8545 -5761.6831)">
			</pattern>
			<path fill="url(#SVGID_4_)" d="M169.25,9.528c1.361-0.018,2.729,0.576,4.09,1.777c0.149-0.512,0.369-0.947,0.661-1.295
				c1.895-2.311,4.062-2.748,6.499-1.313c-2.048,0.439-3.069,1.39-3.069,2.848v62.54l2.632,2.125c0.191,0.163,0.191,0.331,0,0.515
				l-2.632,3.134v29.584c0,1.464,1.021,2.024,3.069,1.682c-2.437,2.363-4.604,2.751-6.499,1.17c-0.292-0.24-0.512-0.588-0.661-1.048
				c-1.361,1.721-2.729,2.831-4.09,3.337l-9.351,1.787c-0.34-0.716-0.076-1.354,0.804-1.907c3.993-2.566,5.99-5.138,5.99-7.719
				V82.268l-2.997-2.421c-0.143-0.118-0.143-0.288,0-0.51l2.997-3.496V18.345c0-2.581-1.997-4.393-5.99-5.433
				c-0.88-0.221-1.145-0.754-0.804-1.599L169.25,9.528z"/>
			<pattern  id="SVGID_5_" xlink:href="#_x31_0_lpi_40_x25_" patternTransform="matrix(0.2648 0 0 0.2648 -5680.8545 -5761.6831)">
			</pattern>
			<path fill="url(#SVGID_5_)" d="M207.166,66.731c-2.437,2.558-3.188,4.554-2.262,5.985c2.531-1.945,4.358-1.611,5.476,1
				c0.78,1.945,0,3.533-2.336,4.753c-2.386,1.189-4.238,1.007-5.553-0.545c-0.143-0.215-0.317-0.499-0.509-0.851v8.91
				c-0.052,1.278,0.021,2.485,0.217,3.614c-0.83,1.375-1.267,2.723-1.315,4.051c0.975-1.599,2.019-2.821,3.142-3.67
				c1.363-1.037,2.75-1.4,4.165-1.085c-2.485,1.934-3.287,4.035-2.411,6.302c0.828,2.229,2.508,3.347,5.041,3.353l-0.367-0.008
				c5.455,0.812,10.548-1.791,15.271-7.808c0.775-1.023,1.069-2.369,0.874-4.038c-0.193-1.717-0.945-2.643-2.263-2.782
				c0.975,1.564,0.486,2.753-1.459,3.567c-1.953,0.81-3.827,0.364-5.625-1.338c-2.002-1.858-1.953-4.426,0.143-7.702
				c1.51-2.235,3.654-3.156,6.428-2.759c2.727,0.356,4.896,1.82,6.506,4.386c2.091,3.302,2.359,7.535,0.801,12.704
				c-3.117,10.238-11.129,15.494-24.035,15.765c-3.703,0.414-6.941-0.381-9.716-2.382c-4.142-2.958-6.214-7.559-6.214-13.794V77.673
				l-3.063-2.485c-0.147-0.114-0.147-0.286,0-0.508l3.063-3.654V54.662c0-8.527,2.974-14.912,8.92-19.164
				c3.505-2.614,7.643-4.38,12.419-5.292c7.985-1.57,13.514,0.758,16.583,6.992c2.921,5.871,2.358,11.043-1.682,15.515
				c-1.9,2.557-6.212,5.666-12.93,9.335C210.475,64.223,208.044,65.784,207.166,66.731z M201.982,68.521
				c0.29-0.732,0.628-1.483,1.021-2.239c1.118-2.013,5.112-5.379,11.982-10.103c3.508-2.423,5.649-5.387,6.427-8.898
				c0.828-3.857-0.729-6.288-4.675-7.288c-1.462-0.213-2.946-0.099-4.455,0.336c-6.77,2.073-10.204,7.67-10.3,16.799V68.521z"/>
			<pattern  id="SVGID_6_" xlink:href="#_x31_0_lpi_40_x25_" patternTransform="matrix(0.2648 0 0 0.2648 -5680.8545 -5761.6831)">
			</pattern>
			<path fill="url(#SVGID_6_)" d="M257.358,54.083v4.459l2.993,2.347c0.148,0.17,0.148,0.338,0,0.515l-2.993,3.565v29.222
				c0,1.462,1.022,2.022,3.068,1.683c-2.435,2.365-4.603,2.753-6.501,1.166c-0.293-0.236-0.514-0.585-0.657-1.044
				c-1.366,1.723-2.728,2.834-4.095,3.341l-9.352,1.781c-0.336-0.711-0.071-1.35,0.807-1.907c3.992-2.562,5.988-5.135,5.988-7.717
				V66.658l-2.628-2.133c-0.197-0.108-0.197-0.278,0-0.51l2.628-3.131V32.975c0-2.58-1.996-4.393-5.988-5.432
				c-0.878-0.222-1.143-0.754-0.807-1.601l10.664-2.036c2.974-0.079,4.629,1.214,4.969,3.875c1.319-3.465,5.211-5.816,11.691-7.052
				l0.291-0.056c0.197-0.037,0.461-0.063,0.807-0.079v-0.072c6.329-1.208,11.124,0.263,14.391,4.411
				c2.287,2.877,3.337,5.453,3.146,7.73v20.529l2.915,2.292c0.149,0.167,0.149,0.338,0,0.509l-2.915,3.484v24.547
				c0,2.581,1.995,4.393,5.984,5.431c0.878,0.223,1.123,0.76,0.734,1.615l-9.278,1.769c-1.416,0.025-2.777-0.564-4.092-1.775
				c-0.144,0.514-0.367,0.944-0.656,1.293c-1.953,2.318-4.12,2.759-6.502,1.311c1.995-0.425,2.991-1.375,2.991-2.833V61.317
				l-2.628-2.198c-0.195-0.11-0.195-0.28,0-0.513l2.628-3.132V43.201c-0.047-9.345-2.603-13.531-7.667-12.566l-1.027,0.269
				c-3.648,1.332-6.061,3.958-7.23,7.883c-1.219,4.277-0.27,8.555,2.848,12.828c-3.062-0.147-5.547-1.376-7.446-3.693
				C255.019,50.928,255.997,52.983,257.358,54.083z"/>
			<pattern  id="SVGID_7_" xlink:href="#_x31_0_lpi_40_x25_" patternTransform="matrix(0.2648 0 0 0.2648 -5680.8545 -5761.6831)">
			</pattern>
			<path fill="url(#SVGID_7_)" d="M314.999,46.154c-2.437,2.558-3.188,4.554-2.265,5.984c2.533-1.941,4.36-1.608,5.481,1
				c0.777,1.947,0,3.533-2.339,4.758c-2.385,1.186-4.235,1.001-5.554-0.547c-0.145-0.216-0.317-0.499-0.513-0.854v8.916
				c-0.044,1.278,0.023,2.479,0.221,3.61c-0.825,1.377-1.267,2.727-1.314,4.051c0.975-1.599,2.019-2.821,3.14-3.67
				c1.363-1.038,2.754-1.402,4.169-1.084c-2.484,1.934-3.291,4.037-2.417,6.303c0.829,2.229,2.512,3.343,5.045,3.349l-0.365-0.006
				c5.452,0.814,10.546-1.791,15.268-7.808c0.777-1.025,1.071-2.369,0.878-4.038c-0.195-1.717-0.954-2.643-2.263-2.784
				c0.969,1.568,0.483,2.759-1.464,3.567c-1.951,0.81-3.826,0.365-5.625-1.338c-1.999-1.856-1.95-4.424,0.146-7.698
				c1.51-2.235,3.652-3.156,6.429-2.763c2.73,0.358,4.896,1.819,6.503,4.387c2.092,3.303,2.359,7.537,0.801,12.706
				c-3.111,10.237-11.124,15.488-24.033,15.763c-3.702,0.414-6.943-0.381-9.716-2.384c-4.144-2.96-6.209-7.555-6.209-13.791V57.098
				l-3.07-2.483c-0.144-0.116-0.144-0.286,0-0.512l3.07-3.655V34.084c0-8.521,2.968-14.91,8.908-19.162
				c3.512-2.616,7.649-4.379,12.421-5.294c7.988-1.57,13.519,0.76,16.587,6.994c2.92,5.873,2.359,11.045-1.685,15.515
				c-1.898,2.556-6.208,5.666-12.928,9.335C318.312,43.65,315.877,45.21,314.999,46.154z M309.811,47.948
				c0.292-0.739,0.637-1.481,1.025-2.239c1.123-2.015,5.112-5.385,11.979-10.107c3.511-2.421,5.653-5.387,6.431-8.895
				c0.83-3.857-0.729-6.292-4.675-7.29c-1.462-0.209-2.949-0.099-4.455,0.338c-6.771,2.069-10.204,7.667-10.305,16.795V47.948z"/>
		</g>
	</g>
	<g>
		<g>
			
				<path fill="#303D57" stroke="#FFFFFF" stroke-width="0.8827" stroke-linecap="round" stroke-linejoin="round" stroke-miterlimit="10" d="
				M5.065,141.996c-0.193-0.695,0.17-1.324,1.094-1.889c4.239-2.612,6.6-5.277,7.089-8.002l4.675-25.66
				c-4.432,2.405-8.063,4.072-10.886,5c-0.439-2.349,0.12-4.526,1.68-6.53c-1.12-1.879-1.313-3.987-0.586-6.317
				c0.731-2.38,1.464-3.639,2.195-3.778c-0.34,1.139-0.365,1.994-0.075,2.57c0.244,0.638,1.071,0.94,2.484,0.917
				c1.802-0.199,4.167-0.918,7.089-2.158l10.008-55.243c0.487-2.67-1.048-4.573-4.602-5.695c-0.781-0.242-0.93-0.8-0.439-1.67
				l9.13-1.744c1.315-0.004,2.486,0.621,3.505,1.887c0.246-0.532,0.538-0.979,0.88-1.336c2.239-2.373,3.993-2.709,5.261-1.002
				c-2.047,0.731-3.215,1.854-3.509,3.375l0.804,4.083l0.876,4.652l0.294,1.257l7.158,36.773c2.678-1,4.772-1.448,6.282-1.346
				c5.553,0.451,8.84,3.332,9.863,8.637c0.292,2.916-0.975,5.424-3.797,7.518c-2.875,2.111-4.774,1.841-5.699-0.812
				c-1.268-3.506-0.122-6.112,3.432-7.814c-0.487-2.291-2.701-2.916-6.647-1.872c-0.536,0.153-1.34,0.501-2.413,1.044l7.964,40.855
				c1.998,8.628,4.117,13.898,6.358,15.809c2.094,1.744,3.823,1.901,5.184,0.473c-1.554-2.088-1.143-4.143,1.246-6.154
				c1.75-1.455,3.068-1.122,3.942,0.997c0.926,2.163,0.659,4.188-0.802,6.073c-2.68,3.384-6.089,4.424-10.227,3.119
				c-1.464-0.451-4.289-3.832-8.475-10.142c-0.097,0.162-0.17,0.298-0.221,0.405c-1.559,2.248-4.482,3.363-8.767,3.352
				c2.044-1.46,2.947-2.922,2.705-4.387l-0.73-3.73l-1.023-5.14c-1.998-10.184-4.312-22.068-6.942-35.644
				c-6.381,4.045-9.935,6.28-10.666,6.709l-4.749,26.038l-0.949,5.443l-0.731,4.083c-0.292,1.519,0.561,2.087,2.556,1.708
				c-2.972,2.512-5.236,2.942-6.792,1.294c-0.195-0.254-0.342-0.641-0.439-1.158c-1.559,1.808-3.045,2.944-4.459,3.404
				L5.065,141.996z M31.439,90.425c5.453-2.941,8.036-4.335,7.744-4.184c-0.731-3.705-1.949-9.902-3.654-18.588L31.439,90.425z"/>
			
				<path fill="#303D57" stroke="#FFFFFF" stroke-width="0.8827" stroke-linecap="round" stroke-linejoin="round" stroke-miterlimit="10" d="
				M72.644,129.469l-0.074-0.352v-0.221v-0.076l0.074-0.303l0.069-0.16l0.078-0.159l0.071-0.018l0.072-0.083l0.075-0.087v-0.077
				l0.145-0.102l0.147-0.098l0.143-0.103l0.076-0.014l0.149-0.101l0.071-0.085l0.143-0.029l0.074-0.089l0.22-0.114l0.074-0.011
				l0.218-0.117l0.145-0.028l0.076-0.085l0.143-0.029l0.222-0.116l0.145-0.099l0.075-0.089l0.143-0.024l0.147-0.104l0.072-0.086
				l0.147-0.029l0.147-0.1l0.071-0.088l0.147-0.102l0.147-0.1l0.145-0.102l0.074-0.087l0.147-0.103l0.147-0.098l0.147-0.101
				l0.069-0.089l0.145-0.1l0.147-0.172l0.074-0.087l0.147-0.103l0.145-0.174l0.073-0.085l0.147-0.178l0.072-0.083l0.148-0.176
				l0.072-0.16l0.073-0.161l0.145-0.099l0.074-0.161l0.075-0.16l0.145-0.248l0.074-0.161l0.073-0.159l0.07-0.162
				c0-0.048,0.023-0.122,0.077-0.23l0.07-0.159c0-0.052,0-0.124,0-0.223c0.05-0.056,0.075-0.11,0.075-0.158l0.074-0.232l0.071-0.234
				v-0.22c0-0.05,0.025-0.125,0.072-0.232l0.075-0.747v-0.22V95.223l-2.776-2.249c-0.197-0.11-0.197-0.279,0-0.511l2.776-3.307
				V31.515c0-2.583-1.999-4.391-5.994-5.434c-0.874-0.222-1.141-0.756-0.8-1.599l9.349-1.785c1.365-0.013,2.729,0.576,4.092,1.775
				c0.147-0.513,0.367-0.946,0.657-1.292c1.901-2.312,4.068-2.751,6.503-1.314c-2.044,0.438-3.067,1.39-3.067,2.852v32.728
				c2.775-4.814,6.501-7.668,11.178-8.56c6.329-1.208,11.153,0.255,14.465,4.397c2.239,2.887,3.264,5.468,3.068,7.744v20.678
				l2.777,2.167c0.191,0.162,0.191,0.333,0,0.514l-2.777,3.307v19.139c0.195,1.864-1.05,4.805-3.726,8.823
				c-3.558,5.354-8.162,8.591-13.808,9.72l-1.241,0.236c-4.047,0.822-7.357-1.007-9.937-5.481v2.484
				c0,1.462,1.023,2.021,3.067,1.679c-2.435,2.363-4.602,2.753-6.503,1.169c-0.29-0.24-0.51-0.585-0.657-1.046
				c-1.363,1.723-2.727,2.836-4.092,3.342L72.644,129.469z M90.178,93.245v14.904c2.483,6.003,5.89,8.591,10.227,7.763
				c0.732-0.137,1.388-0.387,1.972-0.741c1.607-1.133,2.705-2.562,3.291-4.281c0.874-2.601,0.069-4.399-2.415-5.385
				c1.413-0.854,2.8-1.019,4.167-0.5c0.826,0.327,1.655,0.926,2.483,1.791v-0.145l-0.073-0.426l-0.074-0.278l-0.073-0.28
				l-0.074,0.016v-0.145l-0.071-0.06l-0.072-0.205l-0.073-0.131v-0.074l-0.074-0.062l-0.071-0.058v-0.143l-0.076-0.058l-0.073-0.06
				l-0.072-0.06v-0.073l-0.073-0.06v-0.071l-0.074-0.06l-0.071,0.014v-0.072l-0.147-0.118l-0.072-0.06v-0.074l-0.075-0.058
				l-0.074-0.06l-0.071-0.06l-0.074-0.06l-0.073-0.058l-0.072-0.06c-0.05-0.041-0.122-0.095-0.222-0.18
				c0.147-1.197,0.222-2.229,0.222-3.105V89.814l-2.852-2.305c-0.145-0.118-0.145-0.288,0-0.513l2.852-3.32V71.55
				c-0.05-9.337-2.629-13.524-7.746-12.545l-0.948,0.251c-3.705,1.34-6.114,3.966-7.233,7.883
				c-1.269,4.285-0.317,8.556,2.848,12.826c-3.8,0.481-6.308-1.305-7.523-5.358l0.071,0.787l0.074,0.57v0.076v0.218
				c0.487,2.732,1.314,4.596,2.484,5.59v5.261l2.848,2.229c0.147,0.168,0.147,0.34,0,0.512L90.178,93.245z"/>
			
				<path fill="#303D57" stroke="#FFFFFF" stroke-width="0.8827" stroke-linecap="round" stroke-linejoin="round" stroke-miterlimit="10" d="
				M145.335,76.875l2.485,2.013c0.193,0.155,0.193,0.325,0,0.508l-2.485,2.96v29.733c0,1.462,1.023,2.022,3.069,1.682
				c-2.388,2.352-4.556,2.74-6.503,1.164c-0.292-0.234-0.51-0.584-0.655-1.044c-1.367,1.723-2.73,2.833-4.092,3.341l-9.351,1.785
				v-0.149l-0.078-0.06v-0.582v-0.075l0.078-0.232l0.071-0.015v-0.072c0.147-0.272,0.389-0.512,0.729-0.721
				c3.995-2.568,5.99-5.138,5.99-7.721V85.062l-3.142-2.542c-0.143-0.116-0.143-0.286,0-0.507l3.142-3.674V50.87
				c0-2.58-1.995-4.392-5.99-5.432c-0.878-0.221-1.141-0.754-0.8-1.599l9.351-1.785c1.41-0.074,2.825,0.361,4.237,1.309
				c0.147-0.319,0.317-0.598,0.51-0.828c1.903-2.309,4.066-2.75,6.503-1.313c-2.046,0.439-3.069,1.388-3.069,2.85V76.875z
				 M145.993,23.492c0,5.308-2.287,8.399-6.868,9.271c-4.531,0.866-6.795-1.357-6.795-6.665c0-5.31,2.264-8.397,6.795-9.26
				C143.706,15.967,145.993,18.185,145.993,23.492z"/>
			
				<path fill="#303D57" stroke="#FFFFFF" stroke-width="0.8827" stroke-linecap="round" stroke-linejoin="round" stroke-miterlimit="10" d="
				M165.058,6.85c1.365-0.019,2.729,0.576,4.095,1.777c0.145-0.516,0.366-0.949,0.658-1.295c1.898-2.311,4.064-2.75,6.5-1.315
				c-2.045,0.437-3.066,1.391-3.066,2.85v62.539l2.627,2.127c0.195,0.16,0.195,0.329,0,0.512l-2.627,3.134v29.586
				c0,1.46,1.021,2.022,3.066,1.682c-2.436,2.361-4.602,2.752-6.5,1.166c-0.292-0.236-0.513-0.584-0.658-1.044
				c-1.367,1.721-2.73,2.831-4.095,3.337l-9.349,1.783c-0.336-0.711-0.073-1.352,0.805-1.905c3.995-2.564,5.988-5.135,5.988-7.719
				V79.589l-2.993-2.421c-0.147-0.12-0.147-0.29,0-0.514l2.993-3.496V15.663c0-2.58-1.994-4.389-5.988-5.43
				c-0.878-0.224-1.141-0.756-0.805-1.599L165.058,6.85z"/>
			
				<path fill="#303D57" stroke="#FFFFFF" stroke-width="0.8827" stroke-linecap="round" stroke-linejoin="round" stroke-miterlimit="10" d="
				M202.976,64.053c-2.437,2.556-3.19,4.55-2.263,5.982c2.533-1.943,4.356-1.613,5.48,1c0.775,1.947,0,3.535-2.338,4.757
				c-2.386,1.185-4.236,1.005-5.551-0.547c-0.149-0.214-0.321-0.5-0.512-0.853v8.91c-0.05,1.278,0.023,2.482,0.22,3.616
				c-0.829,1.373-1.266,2.722-1.318,4.049c0.978-1.597,2.019-2.823,3.142-3.67c1.365-1.037,2.751-1.402,4.165-1.085
				c-2.482,1.932-3.287,4.036-2.411,6.304c0.83,2.228,2.508,3.347,5.039,3.349l-0.363-0.004c5.457,0.81,10.543-1.794,15.27-7.808
				c0.777-1.024,1.072-2.369,0.875-4.039c-0.197-1.715-0.949-2.645-2.264-2.781c0.975,1.564,0.484,2.753-1.462,3.564
				c-1.947,0.812-3.821,0.365-5.625-1.336c-1.997-1.858-1.947-4.424,0.147-7.701c1.508-2.233,3.65-3.156,6.427-2.757
				c2.729,0.354,4.896,1.817,6.503,4.381c2.096,3.305,2.365,7.537,0.801,12.706c-3.111,10.24-11.125,15.494-24.029,15.765
				c-3.707,0.416-6.943-0.381-9.72-2.382c-4.138-2.96-6.21-7.558-6.21-13.792V74.995l-3.069-2.486c-0.143-0.114-0.143-0.284,0-0.511
				l3.069-3.652V51.982c0-8.525,2.968-14.912,8.916-19.164c3.508-2.614,7.644-4.379,12.419-5.292
				c7.984-1.568,13.512,0.756,16.582,6.99c2.924,5.872,2.363,11.046-1.678,15.519c-1.898,2.556-6.215,5.666-12.934,9.333
				C206.288,61.545,203.855,63.104,202.976,64.053z M197.792,65.842c0.292-0.733,0.632-1.481,1.023-2.239
				c1.12-2.015,5.114-5.381,11.98-10.101c3.506-2.425,5.65-5.389,6.428-8.898c0.83-3.859-0.729-6.292-4.674-7.292
				c-1.459-0.209-2.946-0.095-4.457,0.338c-6.771,2.071-10.206,7.67-10.3,16.799V65.842z"/>
			
				<path fill="#303D57" stroke="#FFFFFF" stroke-width="0.8827" stroke-linecap="round" stroke-linejoin="round" stroke-miterlimit="10" d="
				M253.168,51.405v4.457l2.997,2.35c0.144,0.168,0.144,0.338,0,0.51l-2.997,3.569v29.223c0,1.46,1.021,2.022,3.068,1.68
				c-2.436,2.365-4.604,2.751-6.502,1.166c-0.293-0.236-0.509-0.584-0.658-1.042c-1.361,1.723-2.729,2.833-4.089,3.337l-9.351,1.785
				c-0.341-0.711-0.072-1.35,0.8-1.906c3.995-2.562,5.991-5.136,5.991-7.717V63.976l-2.629-2.129c-0.193-0.11-0.193-0.28,0-0.51
				l2.629-3.13v-27.91c0-2.581-1.996-4.393-5.991-5.433c-0.872-0.221-1.141-0.754-0.8-1.599l10.663-2.036
				c2.97-0.08,4.63,1.212,4.97,3.873c1.312-3.465,5.207-5.816,11.69-7.052l0.292-0.054c0.191-0.039,0.46-0.064,0.801-0.08V17.84
				c6.33-1.208,11.129,0.265,14.395,4.414c2.288,2.875,3.338,5.451,3.143,7.729V50.51l2.92,2.293c0.143,0.168,0.143,0.338,0,0.51
				l-2.92,3.48v24.549c0,2.582,1.994,4.395,5.988,5.43c0.874,0.224,1.117,0.764,0.734,1.616l-9.279,1.77
				c-1.414,0.027-2.781-0.568-4.095-1.775c-0.144,0.515-0.365,0.946-0.657,1.296c-1.947,2.316-4.115,2.757-6.503,1.311
				c1.999-0.43,2.997-1.375,2.997-2.833V58.639l-2.631-2.201c-0.191-0.11-0.191-0.278,0-0.514l2.631-3.13V40.523
				c-0.047-9.345-2.608-13.533-7.672-12.566l-1.025,0.265c-3.65,1.334-6.062,3.962-7.231,7.885
				c-1.218,4.277-0.265,8.554,2.849,12.828c-3.065-0.145-5.549-1.375-7.449-3.693C250.832,48.248,251.805,50.305,253.168,51.405z"/>
			
				<path fill="#303D57" stroke="#FFFFFF" stroke-width="0.8827" stroke-linecap="round" stroke-linejoin="round" stroke-miterlimit="10" d="
				M310.812,43.476c-2.437,2.559-3.194,4.552-2.269,5.985c2.537-1.943,4.358-1.611,5.48,1c0.783,1.945,0,3.533-2.34,4.759
				c-2.382,1.183-4.234,1.001-5.554-0.549c-0.143-0.217-0.314-0.499-0.508-0.853v8.912c-0.047,1.278,0.024,2.483,0.222,3.612
				c-0.829,1.377-1.272,2.729-1.314,4.053c0.969-1.603,2.019-2.825,3.136-3.672c1.367-1.039,2.758-1.4,4.167-1.087
				c-2.484,1.936-3.289,4.04-2.411,6.308c0.83,2.229,2.508,3.341,5.045,3.347l-0.369-0.006c5.457,0.812,10.544-1.789,15.271-7.806
				c0.777-1.027,1.065-2.369,0.874-4.041c-0.197-1.713-0.949-2.64-2.265-2.781c0.975,1.566,0.485,2.759-1.461,3.567
				c-1.947,0.811-3.827,0.362-5.625-1.34c-2-1.856-1.947-4.424,0.148-7.698c1.505-2.233,3.648-3.154,6.426-2.761
				c2.728,0.354,4.896,1.82,6.502,4.386c2.097,3.3,2.363,7.537,0.801,12.706c-3.113,10.236-11.126,15.488-24.028,15.761
				c-3.707,0.416-6.943-0.377-9.721-2.382c-4.14-2.962-6.211-7.555-6.211-13.789V54.42l-3.068-2.485
				c-0.145-0.118-0.145-0.288,0-0.512l3.068-3.654V31.406c0-8.523,2.969-14.91,8.914-19.162c3.506-2.616,7.646-4.384,12.416-5.294
				c7.989-1.57,13.523,0.758,16.586,6.992c2.926,5.875,2.365,11.043-1.682,15.517c-1.899,2.555-6.205,5.666-12.929,9.335
				C314.121,40.97,311.685,42.528,310.812,43.476z M305.623,45.268c0.294-0.736,0.634-1.481,1.022-2.237
				c1.121-2.017,5.116-5.385,11.982-10.107c3.506-2.425,5.65-5.387,6.432-8.898c0.823-3.857-0.735-6.288-4.676-7.288
				c-1.462-0.209-2.949-0.097-4.459,0.34c-6.771,2.069-10.205,7.667-10.302,16.793V45.268z"/>
		</g>
	</g>
	<g>
		<g>
			
				<path fill-rule="evenodd" clip-rule="evenodd" fill="#6D4323" stroke="#FFFFFF" stroke-width="0.8827" stroke-linecap="round" stroke-linejoin="round" stroke-miterlimit="10" d="
				M223.684,155.292c-16.192,2.015-32.32,4.558-48.349,7.609c3.2-7.978,4.856-11.963,8.281-19.909
				c-5.884-6.142-8.875-9.186-14.958-15.217c16.816-3.077,33.646-5.725,50.595-7.962
				C220.726,131.64,222.205,143.466,223.684,155.292z"/>
			
				<path fill-rule="evenodd" clip-rule="evenodd" fill="#6D4323" stroke="#FFFFFF" stroke-width="0.8827" stroke-linecap="round" stroke-linejoin="round" stroke-miterlimit="10" d="
				M413.164,155.168c16.525,2.038,32.986,4.616,49.343,7.733c-3.202-7.978-4.857-11.961-8.282-19.907
				c5.883-6.142,8.876-9.188,14.96-15.219c-17.162-3.137-34.337-5.828-51.636-8.092C416.084,131.512,414.627,143.34,413.164,155.168
				z"/>
			<pattern  id="SVGID_8_" xlink:href="#_x31_0_lpi_40_x25_" patternTransform="matrix(0.2648 0 0 0.2648 -5842.3486 -5891.1523)">
			</pattern>
			
				<path fill-rule="evenodd" clip-rule="evenodd" fill="url(#SVGID_8_)" stroke="#FFFFFF" stroke-width="0.8827" stroke-linecap="round" stroke-linejoin="round" stroke-miterlimit="10" d="
				M223.684,155.292c-16.045,2.002-32.025,4.514-47.912,7.524c3.205-7.976,4.863-11.956,8.292-19.9
				c-5.88-6.145-8.87-9.194-14.95-15.229c16.625-3.146,33.347-5.78,50.138-7.875C220.726,131.64,222.205,143.466,223.684,155.292z"
				/>
			<pattern  id="SVGID_9_" xlink:href="#_x31_0_lpi_40_x25_" patternTransform="matrix(0.2611 0 0 0.2648 -5868.5723 -5891.1514)">
			</pattern>
			
				<path fill-rule="evenodd" clip-rule="evenodd" fill="url(#SVGID_9_)" stroke="#FFFFFF" stroke-width="0.8827" stroke-linecap="round" stroke-linejoin="round" stroke-miterlimit="10" d="
				M413.608,155.221c16.302,2.025,32.538,4.577,48.678,7.636c-3.142-7.964-4.765-11.939-8.125-19.874
				c5.817-6.153,8.777-9.206,14.793-15.252c-16.932-3.089-33.877-5.748-50.942-7.989
				C416.541,131.567,415.074,143.394,413.608,155.221z"/>
			
				<path fill-rule="evenodd" clip-rule="evenodd" fill="#230E00" stroke="#FFFFFF" stroke-width="0.8827" stroke-linecap="round" stroke-linejoin="round" stroke-miterlimit="10" d="
				M195.385,149.525c9.448,1.595,18.866,3.364,28.244,5.326c-0.461-3.682-0.69-5.522-1.15-9.204
				C211.622,147.008,206.2,147.782,195.385,149.525z"/>
			
				<path fill-rule="evenodd" clip-rule="evenodd" fill="#230E00" stroke="#FFFFFF" stroke-width="0.8827" stroke-linecap="round" stroke-linejoin="round" stroke-miterlimit="10" d="
				M441.9,149.436c-9.445,1.604-18.861,3.378-28.237,5.348c0.457-3.683,0.684-5.523,1.141-9.206
				C425.661,146.93,431.083,147.7,441.9,149.436z"/>
			
				<path fill-rule="evenodd" clip-rule="evenodd" fill="#6D4323" stroke="#FFFFFF" stroke-width="0.8827" stroke-linecap="round" stroke-linejoin="round" stroke-miterlimit="10" d="
				M442,149.45c-82.264-12.451-164.464-12.424-246.718,0.089c-1.893-11.766-3.784-23.531-5.679-35.297
				c85.994-13.121,172.049-13.154,258.052-0.093C445.771,125.917,443.885,137.684,442,149.45z"/>
			<g>
				<path fill="#FFFFFF" d="M217.279,140.054c-0.298,0.039-0.448,0.06-0.746,0.099c-0.248,0.032-0.39-0.092-0.427-0.374
					c-0.312-2.361-0.471-3.542-0.782-5.903c-0.053-0.396,0.06-0.615,0.33-0.65c0.259-0.034,0.386-0.049,0.645-0.083
					c0.17-0.022,0.292,0.023,0.362,0.136c0.071,0.113,0.199,0.521,0.394,1.215c0.748,2.672,1.871,3.931,3.325,3.747
					c0.757-0.096,1.312-0.515,1.66-1.259c0.349-0.744,0.46-1.608,0.339-2.59c-0.125-1.014-0.472-1.923-1.047-2.732
					c-0.574-0.808-1.621-1.877-3.148-3.171c-1.178-0.998-2.036-1.774-2.558-2.339c-0.521-0.563-0.971-1.218-1.343-1.966
					c-0.371-0.747-0.618-1.59-0.742-2.53c-0.229-1.732,0.01-3.215,0.717-4.442c0.708-1.228,1.679-1.923,2.908-2.079
					c0.565-0.072,1.189,0.015,1.876,0.261c0.306,0.11,0.508,0.16,0.609,0.147c0.104-0.013,0.212-0.075,0.324-0.169
					c0.107-0.089,0.262-0.147,0.446-0.169c0.228-0.028,0.34-0.042,0.568-0.069c0.296-0.036,0.466,0.087,0.5,0.369
					c0.252,2.076,0.377,3.113,0.629,5.189c0.032,0.262-0.065,0.407-0.289,0.434c-0.281,0.034-0.421,0.052-0.702,0.086
					c-0.183,0.022-0.31-0.016-0.377-0.107c-0.067-0.092-0.216-0.458-0.438-1.099c-0.763-2.2-1.685-3.246-2.769-3.108
					c-0.583,0.074-1.02,0.385-1.307,0.932c-0.287,0.545-0.39,1.15-0.305,1.807c0.099,0.763,0.406,1.516,0.92,2.262
					s1.469,1.688,2.855,2.831c1.776,1.463,3.037,2.793,3.788,3.98c0.752,1.188,1.215,2.52,1.392,3.992
					c0.238,1.986-0.068,3.661-0.907,5.024s-1.938,2.133-3.298,2.305c-0.605,0.076-1.351,0.007-2.193-0.233
					c-0.271-0.077-0.466-0.116-0.576-0.102c-0.099,0.013-0.222,0.089-0.365,0.211C217.443,139.996,217.348,140.045,217.279,140.054z
					"/>
				<path fill="#FFFFFF" d="M238.799,137.542c-4.093,0.42-6.138,0.646-10.227,1.12c-0.237,0.027-0.371-0.084-0.4-0.335
					c-0.032-0.276-0.05-0.415-0.082-0.691c-0.025-0.22,0.117-0.479,0.409-0.778c0.262-0.269,0.364-0.668,0.306-1.18
					c-0.855-7.432-1.284-11.146-2.14-18.578c-0.062-0.543-0.297-0.936-0.706-1.158c-0.274-0.149-0.434-0.343-0.462-0.583
					c-0.035-0.301-0.05-0.451-0.085-0.752c-0.023-0.199,0.088-0.313,0.333-0.341c3.164-0.367,4.747-0.542,7.914-0.878
					c0.143-0.015,0.417-0.06,0.812-0.134c0.354-0.066,0.58-0.108,0.673-0.118c0.34-0.035,0.518,0.041,0.537,0.229
					c0.19,1.848,0.286,2.772,0.477,4.619c0.024,0.241,0.017,0.387-0.025,0.438s-0.168,0.088-0.382,0.111
					c-0.227,0.023-0.341,0.036-0.567,0.06c-0.244,0.025-0.394-0.11-0.459-0.395c-0.183-0.797-0.475-1.483-0.828-2.033
					c-0.353-0.549-0.971-0.778-1.852-0.683c-0.774,0.084-1.16,0.127-1.935,0.213c0.394,3.554,0.59,5.329,0.982,8.883
					c0.279-0.031,0.422-0.045,0.701-0.076c0.436-0.048,0.725-0.167,0.868-0.357c0.143-0.189,0.281-0.758,0.431-1.69
					c0.048-0.3,0.088-0.468,0.116-0.504c0.026-0.035,0.118-0.062,0.271-0.078c0.269-0.029,0.401-0.043,0.67-0.072
					c0.264-0.028,0.411,0.091,0.438,0.353c0.251,2.369,0.376,3.553,0.627,5.921c0.026,0.251-0.083,0.39-0.326,0.416
					c-0.278,0.029-0.414,0.042-0.692,0.072c-0.151,0.017-0.263-0.014-0.33-0.084s-0.177-0.306-0.321-0.704
					c-0.263-0.723-0.509-1.156-0.737-1.295s-0.533-0.188-0.907-0.146c-0.242,0.027-0.363,0.041-0.605,0.067
					c0.439,3.975,0.661,5.962,1.101,9.937c0.808-0.09,1.21-0.135,2.019-0.222c0.748-0.081,1.247-0.322,1.498-0.725
					c0.25-0.401,0.498-1.465,0.762-3.167c0.06-0.386,0.221-0.596,0.482-0.623c0.259-0.027,0.388-0.038,0.646-0.064
					c0.251-0.025,0.389,0.092,0.415,0.353C238.45,134.15,238.566,135.279,238.799,137.542z"/>
				<path fill="#FFFFFF" d="M248.949,125.26c-0.364-4.131-0.546-6.197-0.91-10.329c-0.047-0.537-0.279-0.93-0.691-1.162
					c-0.278-0.157-0.437-0.359-0.459-0.611c-0.024-0.278-0.039-0.416-0.063-0.693c-0.021-0.241,0.105-0.373,0.372-0.397
					c1.395-0.124,2.092-0.186,3.486-0.304c0.226-0.019,0.347,0.082,0.365,0.301c0.024,0.29,0.035,0.435,0.06,0.725
					c0.021,0.241-0.09,0.472-0.33,0.677c-0.371,0.317-0.539,0.738-0.494,1.262c0.723,8.467,1.082,12.699,1.806,21.166
					c0.029,0.337-0.101,0.519-0.39,0.543c-0.264,0.022-0.396,0.035-0.66,0.058c-0.301,0.026-0.525-0.123-0.674-0.45
					c-3.085-6.642-4.65-9.956-7.841-16.568c0.559,5.843,0.836,8.765,1.395,14.607c0.052,0.544,0.283,0.937,0.693,1.171
					c0.271,0.155,0.418,0.352,0.44,0.593c0.026,0.282,0.042,0.427,0.068,0.709c0.022,0.242-0.096,0.373-0.353,0.397
					c-1.335,0.127-2.002,0.19-3.337,0.323c-0.218,0.021-0.339-0.078-0.36-0.297c-0.029-0.295-0.045-0.442-0.074-0.738
					c-0.023-0.23,0.089-0.453,0.326-0.668c0.351-0.316,0.504-0.747,0.451-1.281c-0.732-7.445-1.098-11.168-1.83-18.614
					c-0.053-0.534-0.292-0.924-0.706-1.15c-0.278-0.152-0.438-0.354-0.464-0.605c-0.027-0.277-0.042-0.416-0.069-0.692
					c-0.024-0.241,0.101-0.373,0.367-0.399c1.302-0.129,1.952-0.192,3.254-0.316c0.233-0.022,0.396-0.01,0.482,0.04
					c0.088,0.051,0.183,0.182,0.286,0.395C245.467,117.865,246.637,120.328,248.949,125.26z"/>
				<path fill="#FFFFFF" d="M259.793,132.729c0.041,0.545,0.264,0.945,0.662,1.185c0.269,0.161,0.418,0.36,0.436,0.602
					c0.021,0.283,0.033,0.424,0.054,0.707c0.018,0.242-0.103,0.371-0.361,0.391c-1.868,0.14-2.803,0.213-4.67,0.363
					c-0.219,0.018-0.339-0.083-0.356-0.303c-0.024-0.296-0.034-0.445-0.059-0.741c-0.019-0.23,0.095-0.452,0.337-0.662
					c0.355-0.309,0.517-0.736,0.474-1.271c-0.595-7.457-0.894-11.186-1.487-18.644c-0.043-0.535-0.272-0.932-0.681-1.165
					c-0.275-0.157-0.433-0.36-0.453-0.612c-0.022-0.277-0.032-0.417-0.055-0.694c-0.02-0.241,0.105-0.371,0.374-0.393
					c1.926-0.155,2.887-0.229,4.813-0.373c0.226-0.017,0.35,0.085,0.366,0.305c0.021,0.29,0.03,0.434,0.052,0.724
					c0.018,0.242-0.104,0.47-0.354,0.677c-0.368,0.307-0.534,0.731-0.495,1.255C258.95,121.538,259.231,125.269,259.793,132.729z"/>
				<path fill="#FFFFFF" d="M270.114,135.274c-2.087,0.13-3.71-0.867-4.888-3c-1.178-2.135-1.911-5.146-2.185-9.042
					c-0.273-3.893,0.039-7.02,0.945-9.375c0.905-2.356,2.38-3.603,4.408-3.729c1.905-0.119,3.479,0.847,4.711,2.889
					c1.233,2.045,1.955,5.134,2.181,9.261c0.23,4.214-0.138,7.408-1.094,9.579C273.236,134.028,271.879,135.164,270.114,135.274z
					 M269.844,133.586c0.45-0.028,0.844-0.357,1.181-0.989c0.338-0.633,0.507-2.321,0.505-5.061
					c-0.002-2.739-0.072-5.25-0.208-7.528c-0.122-2.059-0.345-3.745-0.671-5.059c-0.325-1.314-0.645-2.152-0.955-2.518
					c-0.31-0.365-0.688-0.536-1.142-0.507c-0.38,0.023-0.714,0.193-0.998,0.505c-0.284,0.313-0.486,0.857-0.606,1.629
					c-0.12,0.773-0.173,2.271-0.156,4.495c0.017,2.223,0.105,4.527,0.262,6.911c0.194,2.971,0.517,5.078,0.969,6.323
					C268.477,133.033,269.083,133.634,269.844,133.586z"/>
				<path fill="#FFFFFF" d="M282.804,122.765c0.155,3.421,0.231,5.132,0.387,8.553c0.024,0.546,0.236,0.952,0.626,1.202
					c0.264,0.169,0.408,0.372,0.419,0.614c0.013,0.283,0.02,0.427,0.032,0.71c0.011,0.243-0.115,0.368-0.375,0.38
					c-1.869,0.083-2.805,0.13-4.674,0.225c-0.219,0.011-0.333-0.098-0.345-0.317c-0.016-0.297-0.023-0.442-0.039-0.739
					c-0.012-0.231,0.112-0.449,0.359-0.651c0.366-0.3,0.536-0.723,0.51-1.259c-0.372-7.471-0.559-11.206-0.93-18.678
					c-0.026-0.536-0.245-0.938-0.647-1.185c-0.27-0.166-0.421-0.374-0.434-0.626c-0.014-0.278-0.02-0.417-0.034-0.694
					c-0.013-0.242,0.115-0.368,0.382-0.382c1.619-0.082,2.43-0.121,4.049-0.194c2.286-0.104,4.05,0.354,5.282,1.358
					c1.233,1.005,1.883,2.503,1.956,4.492c0.116,3.167-4.021,6.308-4.021,6.308c-0.002,0.071,1.5,0.837,1.952,1.352
					c0.45,0.513,0.813,1.281,1.086,2.304c0.52,1.984,0.778,2.975,1.292,4.959c0.164,0.637,0.317,1.069,0.46,1.289
					c0.144,0.221,0.383,0.422,0.691,0.612c0.093,0.058,0.145,0.16,0.149,0.297c0.013,0.36,0.018,0.538,0.03,0.898
					c0.008,0.232-0.1,0.353-0.318,0.36c-1.194,0.043-1.789,0.065-2.983,0.113c-0.289,0.012-0.481-0.15-0.575-0.487
					c-0.961-3.437-1.446-5.154-2.426-8.589c-0.265-0.947-0.538-1.557-0.818-1.827C283.567,122.891,283.219,122.756,282.804,122.765z
					 M282.298,111.625c0.168,3.705,0.251,5.557,0.419,9.262c1.099-0.05,1.89-0.441,2.378-1.179c0.487-0.737,0.697-2.021,0.622-3.852
					c-0.074-1.79-0.387-2.953-0.938-3.494S283.397,111.575,282.298,111.625z"/>
				<path fill="#FFFFFF" d="M295.062,133.804c-0.3,0.009-0.448,0.014-0.748,0.023c-0.251,0.008-0.382-0.129-0.391-0.413
					c-0.076-2.381-0.111-3.571-0.187-5.952c-0.013-0.399,0.116-0.604,0.388-0.612c0.26-0.008,0.392-0.013,0.651-0.021
					c0.171-0.005,0.285,0.053,0.345,0.171c0.06,0.119,0.147,0.54,0.271,1.25c0.479,2.734,1.47,4.093,2.932,4.055
					c0.76-0.02,1.348-0.38,1.768-1.085c0.419-0.705,0.618-1.552,0.596-2.54c-0.023-1.021-0.278-1.963-0.77-2.826
					c-0.49-0.861-1.425-2.027-2.813-3.467c-1.07-1.11-1.844-1.969-2.305-2.582c-0.46-0.612-0.84-1.31-1.135-2.09
					c-0.295-0.78-0.46-1.644-0.49-2.591c-0.056-1.747,0.327-3.197,1.152-4.347c0.825-1.153,1.858-1.749,3.095-1.781
					c0.566-0.015,1.179,0.133,1.835,0.447c0.292,0.141,0.49,0.211,0.593,0.208s0.217-0.055,0.338-0.138
					c0.114-0.078,0.273-0.119,0.458-0.124c0.229-0.005,0.345-0.008,0.573-0.013c0.3-0.006,0.451,0.132,0.457,0.416
					c0.044,2.091,0.067,3.138,0.111,5.229c0.006,0.264-0.104,0.396-0.331,0.401c-0.282,0.006-0.422,0.009-0.704,0.016
					c-0.184,0.004-0.306-0.044-0.364-0.144c-0.058-0.098-0.167-0.477-0.323-1.137c-0.537-2.268-1.351-3.397-2.441-3.368
					c-0.588,0.016-1.051,0.284-1.392,0.799c-0.34,0.516-0.499,1.103-0.48,1.765c0.022,0.769,0.254,1.55,0.69,2.344
					s1.288,1.826,2.553,3.101c1.618,1.632,2.741,3.082,3.37,4.337c0.63,1.256,0.954,2.628,0.983,4.11
					c0.039,2-0.432,3.636-1.399,4.909c-0.969,1.273-2.136,1.93-3.503,1.966c-0.609,0.016-1.345-0.128-2.157-0.452
					c-0.261-0.104-0.449-0.16-0.56-0.157c-0.1,0.003-0.229,0.067-0.385,0.174C295.229,133.765,295.131,133.802,295.062,133.804z"/>
				<path fill="#FFFFFF" d="M313.84,130.522c-0.048-7.48-0.073-11.221-0.121-18.701c-0.003-0.536-0.204-0.948-0.594-1.21
					c-0.264-0.177-0.404-0.393-0.406-0.646c-0.002-0.278-0.004-0.417-0.006-0.695c-0.002-0.242,0.131-0.363,0.4-0.365
					c2.232-0.016,3.35-0.019,5.582-0.02c0.702,4.605,1.048,6.909,1.73,11.516c0.695-4.604,1.047-6.907,1.762-11.51
					c2.258,0.009,3.387,0.018,5.645,0.043c0.227,0.002,0.339,0.114,0.336,0.334c-0.003,0.291-0.007,0.437-0.01,0.728
					c-0.003,0.242-0.141,0.457-0.407,0.642c-0.393,0.274-0.596,0.684-0.602,1.209c-0.077,7.48-0.114,11.221-0.19,18.701
					c-0.006,0.546,0.189,0.956,0.574,1.235c0.249,0.181,0.371,0.394,0.368,0.636c-0.003,0.284-0.004,0.426-0.007,0.71
					c-0.003,0.243-0.135,0.363-0.396,0.36c-1.805-0.02-2.708-0.027-4.513-0.037c-0.208-0.001-0.314-0.113-0.313-0.333
					c0.001-0.297,0.004-0.444,0.005-0.741c0.001-0.232,0.129-0.448,0.378-0.632c0.384-0.283,0.587-0.689,0.59-1.228
					c0.046-7.659,0.069-11.488,0.116-19.147c-1.383,8.827-2.059,13.242-3.368,22.073c-0.479-0.001-0.718-0.002-1.196-0.002
					c-1.273-8.834-1.928-13.25-3.272-22.081c0.027,7.659,0.041,11.489,0.069,19.147c0.002,0.549,0.196,0.964,0.574,1.229
					c0.256,0.18,0.387,0.391,0.388,0.634c0.001,0.284,0.004,0.426,0.005,0.71c0.001,0.243-0.133,0.361-0.391,0.362
					c-1.338,0.004-2.007,0.01-3.345,0.02c-0.219,0.002-0.329-0.109-0.331-0.329c-0.002-0.297-0.006-0.446-0.008-0.743
					c-0.002-0.231,0.132-0.444,0.389-0.636C313.652,131.475,313.844,131.059,313.84,130.522z"/>
				<path fill="#FFFFFF" d="M335.248,112.158c-0.049-0.43-0.071-0.646-0.12-1.076c-0.042-0.349-0.063-0.543-0.062-0.585
					c0.002-0.105,0.084-0.193,0.239-0.264c1.057-0.478,1.582-0.716,2.642-1.19c0.041-0.02,0.091-0.026,0.142-0.025
					c0.146,0.003,0.235,0.097,0.272,0.286c1.469,8.605,2.181,12.912,3.562,21.522c0.06,0.392,0.143,0.672,0.242,0.843
					c0.101,0.171,0.297,0.356,0.589,0.556c0.225,0.153,0.337,0.324,0.331,0.515c-0.009,0.277-0.013,0.419-0.021,0.696
					c-0.008,0.253-0.107,0.374-0.297,0.368c-2.003-0.061-3.005-0.089-5.008-0.137c-0.27-0.007-0.4-0.133-0.395-0.386
					c0.007-0.277,0.01-0.417,0.017-0.694c0.006-0.243,0.179-0.443,0.499-0.606c0.394-0.201,0.603-0.507,0.612-0.887
					c0.003-0.104-0.007-0.228-0.022-0.364c-0.219-1.326-0.33-1.987-0.552-3.313c-1.579-0.038-2.367-0.054-3.946-0.084
					c-0.277,1.266-0.416,1.896-0.691,3.162c-0.033,0.136-0.05,0.235-0.051,0.298c-0.006,0.316,0.22,0.668,0.653,1.056
					c0.284,0.254,0.425,0.483,0.421,0.673c-0.006,0.277-0.008,0.417-0.014,0.694c-0.005,0.253-0.152,0.376-0.442,0.37
					c-1.253-0.023-1.88-0.036-3.133-0.055c-0.35-0.005-0.525-0.133-0.521-0.386c0.005-0.328,0.009-0.494,0.014-0.822
					c0.003-0.221,0.119-0.398,0.338-0.531c0.412-0.25,0.692-0.699,0.833-1.328C332.894,123.138,333.666,119.477,335.248,112.158z
					 M336.204,117.251c-0.71,3.226-1.064,4.84-1.762,8.067c1.255,0.024,1.881,0.039,3.136,0.068
					C337.033,122.132,336.762,120.504,336.204,117.251z"/>
				<path fill="#FFFFFF" d="M352.07,123.885c1.53,0.064,2.294,0.097,3.824,0.168c0.253,0.012,0.411,0.048,0.475,0.109
					c0.062,0.061,0.088,0.185,0.079,0.375c-0.004,0.084-0.034,0.273-0.072,0.55c-0.092,0.671-0.134,1.247-0.155,1.699
					c-0.083,1.767-0.124,2.649-0.207,4.416c-0.014,0.295,0.052,0.53,0.195,0.676c0.109,0.111,0.169,0.254,0.16,0.433
					c-0.011,0.228-0.021,0.341-0.031,0.568c-0.011,0.22-0.147,0.421-0.404,0.591c-0.259,0.172-0.783,0.387-1.574,0.646
					c-0.793,0.259-1.663,0.366-2.623,0.326c-4.522-0.189-6.659-4.139-6.401-11.91c0.073-2.219,0.369-4.334,0.887-6.342
					c0.519-2.009,1.354-3.684,2.51-5.021c1.155-1.337,2.367-1.98,3.625-1.929c0.628,0.026,1.311,0.235,2.032,0.628
					c0.21,0.114,0.379,0.176,0.503,0.182c0.061,0.003,0.184-0.036,0.361-0.113c0.136-0.058,0.249-0.087,0.342-0.083
					c0.241,0.011,0.361,0.017,0.603,0.028c0.289,0.013,0.428,0.162,0.414,0.445c-0.098,2.083-0.146,3.126-0.244,5.208
					c-0.015,0.305-0.149,0.452-0.405,0.44c-0.258-0.012-0.388-0.018-0.646-0.029c-0.204-0.009-0.324-0.04-0.356-0.089
					c-0.033-0.05-0.104-0.388-0.207-1.014c-0.407-2.467-1.247-3.738-2.533-3.792c-0.618-0.025-1.137,0.244-1.56,0.806
					c-0.422,0.562-0.763,1.891-1.011,3.979c-0.248,2.092-0.414,4.178-0.493,6.26c-0.083,2.187-0.068,3.992,0.038,5.41
					c0.106,1.42,0.257,2.496,0.449,3.225s0.438,1.23,0.733,1.506c0.295,0.274,0.645,0.419,1.055,0.436
					c0.881,0.036,1.354-0.605,1.41-1.932c0.059-1.363,0.087-2.044,0.146-3.407c0.025-0.587-0.03-1.015-0.161-1.279
					c-0.13-0.264-0.414-0.504-0.862-0.724c-0.218-0.105-0.321-0.251-0.313-0.44c0.011-0.266,0.015-0.398,0.025-0.664
					C351.686,123.988,351.816,123.874,352.07,123.885z"/>
				<path fill="#FFFFFF" d="M365.016,113.31c-0.033-0.432-0.049-0.648-0.082-1.08c-0.028-0.351-0.041-0.543-0.039-0.585
					c0.006-0.105,0.089-0.191,0.249-0.256c1.073-0.438,1.606-0.656,2.683-1.091c0.043-0.018,0.093-0.024,0.145-0.021
					c0.143,0.009,0.23,0.107,0.261,0.297c1.151,8.654,1.706,12.982,2.769,21.638c0.044,0.394,0.114,0.678,0.207,0.853
					c0.094,0.176,0.284,0.365,0.569,0.575c0.221,0.163,0.323,0.34,0.311,0.53c-0.019,0.277-0.027,0.414-0.046,0.691
					c-0.018,0.252-0.122,0.372-0.312,0.359c-2-0.135-2.999-0.199-4.999-0.321c-0.27-0.017-0.396-0.15-0.381-0.403
					c0.017-0.277,0.026-0.417,0.043-0.694c0.015-0.243,0.194-0.434,0.52-0.585c0.402-0.188,0.624-0.485,0.647-0.865
					c0.007-0.104,0.001-0.225-0.011-0.362c-0.17-1.333-0.256-2-0.428-3.333c-1.577-0.097-2.367-0.143-3.944-0.23
					c-0.324,1.255-0.483,1.884-0.806,3.139c-0.037,0.135-0.06,0.231-0.063,0.294c-0.018,0.316,0.196,0.676,0.614,1.079
					c0.273,0.264,0.406,0.497,0.396,0.687c-0.016,0.277-0.023,0.417-0.039,0.694c-0.015,0.253-0.165,0.369-0.455,0.353
					c-1.252-0.07-1.878-0.104-3.131-0.17c-0.349-0.019-0.519-0.15-0.506-0.403c0.017-0.328,0.027-0.494,0.044-0.822
					c0.012-0.221,0.133-0.395,0.356-0.52c0.422-0.235,0.718-0.673,0.881-1.297C362.253,124.195,363.164,120.565,365.016,113.31z
					 M365.779,118.435c-0.829,3.198-1.242,4.799-2.059,7.999c1.254,0.07,1.881,0.107,3.135,0.184
					C366.431,123.345,366.217,121.707,365.779,118.435z"/>
				<path fill="#FFFFFF" d="M376.603,110.94c3.637,0.26,5.456,0.401,9.09,0.702c0.339,0.028,0.496,0.183,0.473,0.466
					c-0.037,0.441-0.19,1.009-0.466,1.706c-3.151,7.979-4.696,11.976-7.723,19.983c0.72,0.054,1.079,0.083,1.799,0.139
					c1.538,0.119,2.553-0.885,3.033-3.008c0.11-0.486,0.198-0.774,0.271-0.863c0.073-0.089,0.19-0.129,0.35-0.116
					c0.29,0.023,0.434,0.037,0.724,0.062c0.212,0.018,0.31,0.142,0.29,0.373c-0.191,2.305-0.289,3.455-0.48,5.76
					c-3.787-0.315-5.682-0.461-9.472-0.73c-0.279-0.02-0.409-0.185-0.388-0.489c0.02-0.276,0.03-0.413,0.05-0.69
					c3.146-8.417,4.754-12.617,8.037-21.003c-0.769-0.061-1.153-0.09-1.922-0.149c-0.747-0.057-1.282,0.083-1.605,0.417
					c-0.324,0.334-0.601,1.026-0.834,2.062c-0.104,0.465-0.181,0.723-0.23,0.767c-0.049,0.043-0.166,0.058-0.35,0.045
					c-0.283-0.021-0.424-0.031-0.707-0.052c-0.214-0.015-0.312-0.127-0.298-0.337C376.388,113.966,376.458,112.957,376.603,110.94z"
					/>
				<path fill="#FFFFFF" d="M391.253,133.833c-0.05,0.544,0.104,0.979,0.456,1.279c0.238,0.203,0.353,0.424,0.33,0.665
					c-0.026,0.282-0.038,0.427-0.064,0.709c-0.022,0.242-0.164,0.351-0.424,0.326c-1.865-0.174-2.798-0.258-4.664-0.42
					c-0.219-0.019-0.32-0.14-0.302-0.359c0.025-0.296,0.037-0.445,0.062-0.741c0.02-0.23,0.172-0.43,0.445-0.597
					c0.403-0.246,0.631-0.641,0.678-1.175c0.653-7.452,0.978-11.178,1.632-18.63c0.047-0.534-0.107-0.963-0.473-1.262
					c-0.245-0.201-0.369-0.429-0.348-0.681c0.024-0.277,0.036-0.415,0.061-0.692c0.021-0.241,0.166-0.35,0.433-0.326
					c1.925,0.167,2.888,0.254,4.812,0.433c0.227,0.021,0.327,0.143,0.307,0.362c-0.027,0.29-0.04,0.434-0.067,0.723
					c-0.022,0.241-0.181,0.444-0.462,0.607c-0.413,0.241-0.647,0.632-0.695,1.156C392.281,122.659,391.939,126.384,391.253,133.833z
					"/>
				<path fill="#FFFFFF" d="M404.48,126.791c0.445-4.123,0.667-6.186,1.113-10.309c0.058-0.536-0.093-0.966-0.452-1.273
					c-0.243-0.208-0.356-0.438-0.329-0.689c0.029-0.277,0.046-0.416,0.075-0.693c0.025-0.241,0.171-0.347,0.438-0.318
					c1.392,0.149,2.088,0.226,3.479,0.381c0.227,0.025,0.324,0.149,0.3,0.368c-0.032,0.289-0.049,0.433-0.081,0.722
					c-0.027,0.241-0.181,0.445-0.456,0.601c-0.425,0.239-0.677,0.618-0.734,1.141c-0.938,8.446-1.402,12.668-2.34,21.113
					c-0.037,0.336-0.201,0.491-0.491,0.459c-0.263-0.029-0.396-0.045-0.658-0.074c-0.3-0.033-0.491-0.221-0.574-0.57
					c-1.734-7.115-2.628-10.672-4.473-17.779c-0.588,5.84-0.882,8.76-1.47,14.6c-0.055,0.544,0.096,0.973,0.451,1.283
					c0.234,0.204,0.345,0.427,0.32,0.668c-0.028,0.282-0.044,0.423-0.072,0.705c-0.024,0.242-0.166,0.35-0.423,0.323
					c-1.335-0.136-2.003-0.201-3.338-0.331c-0.217-0.021-0.314-0.144-0.293-0.362c0.028-0.296,0.043-0.442,0.071-0.738
					c0.022-0.23,0.176-0.428,0.451-0.592c0.405-0.241,0.634-0.636,0.687-1.17c0.729-7.445,1.092-11.167,1.821-18.613
					c0.053-0.534-0.102-0.965-0.464-1.267c-0.244-0.204-0.36-0.431-0.336-0.683c0.026-0.277,0.041-0.416,0.067-0.693
					c0.023-0.241,0.166-0.348,0.432-0.322c1.303,0.126,1.956,0.192,3.258,0.324c0.234,0.024,0.391,0.069,0.466,0.134
					c0.076,0.067,0.141,0.213,0.2,0.442C402.498,118.861,403.17,121.503,404.48,126.791z"/>
				<path fill="#FFFFFF" d="M419.504,139.918c-4.084-0.528-6.127-0.78-10.215-1.255c-0.238-0.027-0.344-0.166-0.314-0.417
					c0.032-0.276,0.048-0.415,0.08-0.691c0.025-0.221,0.228-0.437,0.58-0.662c0.316-0.201,0.503-0.566,0.562-1.078
					c0.867-7.431,1.301-11.147,2.168-18.578c0.063-0.543-0.079-0.979-0.426-1.289c-0.232-0.208-0.34-0.431-0.312-0.672
					c0.035-0.301,0.053-0.452,0.088-0.753c0.023-0.199,0.158-0.282,0.404-0.253c3.164,0.367,4.747,0.558,7.908,0.956
					c0.145,0.018,0.417,0.038,0.818,0.056c0.362,0.017,0.59,0.028,0.682,0.04c0.339,0.043,0.498,0.159,0.474,0.347
					c-0.236,1.842-0.354,2.762-0.591,4.604c-0.031,0.24-0.074,0.381-0.127,0.421c-0.052,0.041-0.184,0.048-0.396,0.021
					c-0.227-0.029-0.34-0.043-0.566-0.072c-0.244-0.031-0.357-0.199-0.355-0.49c0.005-0.815-0.123-1.553-0.342-2.169
					c-0.218-0.614-0.766-0.979-1.646-1.088c-0.773-0.096-1.16-0.143-1.934-0.236c-0.431,3.549-0.645,5.325-1.074,8.875
					c0.279,0.034,0.418,0.05,0.697,0.084c0.435,0.053,0.743,0.003,0.927-0.149c0.183-0.151,0.45-0.673,0.81-1.548
					c0.115-0.281,0.191-0.435,0.227-0.463c0.034-0.028,0.129-0.034,0.281-0.015c0.268,0.033,0.399,0.05,0.667,0.084
					c0.264,0.033,0.38,0.181,0.347,0.442c-0.298,2.364-0.444,3.545-0.742,5.909c-0.031,0.25-0.169,0.36-0.41,0.33
					c-0.277-0.035-0.418-0.054-0.695-0.088c-0.151-0.019-0.252-0.071-0.303-0.156c-0.052-0.086-0.1-0.339-0.149-0.76
					c-0.091-0.764-0.23-1.24-0.422-1.429c-0.191-0.188-0.474-0.303-0.848-0.349c-0.242-0.029-0.363-0.047-0.605-0.076
					c-0.481,3.97-0.725,5.956-1.206,9.926c0.808,0.098,1.211,0.149,2.019,0.249c0.747,0.093,1.289-0.031,1.626-0.366
					c0.336-0.333,0.819-1.312,1.463-2.909c0.146-0.362,0.354-0.526,0.613-0.493c0.258,0.033,0.387,0.049,0.645,0.082
					c0.251,0.032,0.357,0.18,0.324,0.439C419.94,136.533,419.795,137.662,419.504,139.918z"/>
			</g>
		</g>
	</g>
</g>
</svg>
