<?xml version="1.0" encoding="utf-8"?>
<!-- Generator: Adobe Illustrator 15.0.2, SVG Export Plug-In . SVG Version: 6.00 Build 0)  -->
<!DOCTYPE svg PUBLIC "-//W3C//DTD SVG 1.1//EN" "http://www.w3.org/Graphics/SVG/1.1/DTD/svg11.dtd">
<svg version="1.1" id="Layer_1" xmlns="http://www.w3.org/2000/svg" xmlns:xlink="http://www.w3.org/1999/xlink" x="0px" y="0px"
	 width="901px" height="168.216px" viewBox="0 0 901 168.216" enable-background="new 0 0 901 168.216" xml:space="preserve">
<pattern  width="72" height="72" patternUnits="userSpaceOnUse" id="_x31_0_lpi_40_x25_" viewBox="20 -72 72 72" overflow="visible">
	<g>
		<polygon fill="none" points="20,0 20,-72 92,-72 92,0 		"/>
		<line fill="none" stroke="#231F20" stroke-width="2.88" x1="19.75" y1="-3.6" x2="92.25" y2="-3.6"/>
		<line fill="none" stroke="#231F20" stroke-width="2.88" x1="19.75" y1="-18" x2="92.25" y2="-18"/>
		<line fill="none" stroke="#231F20" stroke-width="2.88" x1="19.75" y1="-32.4" x2="92.25" y2="-32.4"/>
		<line fill="none" stroke="#231F20" stroke-width="2.88" x1="19.75" y1="-46.8" x2="92.25" y2="-46.8"/>
		<line fill="none" stroke="#231F20" stroke-width="2.88" x1="19.75" y1="-61.2" x2="92.25" y2="-61.2"/>
		<line fill="none" stroke="#231F20" stroke-width="2.88" x1="0" y1="-61.2" x2="14" y2="-61.2"/>
		<line fill="none" stroke="#231F20" stroke-width="2.88" x1="19.75" y1="-10.8" x2="92.25" y2="-10.8"/>
		<line fill="none" stroke="#231F20" stroke-width="2.88" x1="19.75" y1="-25.2" x2="92.25" y2="-25.2"/>
		<line fill="none" stroke="#231F20" stroke-width="2.88" x1="19.75" y1="-39.6" x2="92.25" y2="-39.6"/>
		<line fill="none" stroke="#231F20" stroke-width="2.88" x1="19.75" y1="-54" x2="92.25" y2="-54"/>
		<line fill="none" stroke="#231F20" stroke-width="2.88" x1="19.75" y1="-68.4" x2="92.25" y2="-68.4"/>
		<line fill="none" stroke="#231F20" stroke-width="2.88" x1="0" y1="-68.4" x2="14" y2="-68.4"/>
	</g>
</pattern>
<g>
	<g>
		
			<path fill-rule="evenodd" clip-rule="evenodd" fill="#6D4323" stroke="#FFFFFF" stroke-width="1.636" stroke-linecap="round" stroke-linejoin="round" stroke-miterlimit="10" d="
			M436.629,97.049c-30.015,3.886-59.848,8.582-89.605,14.102c4.953-12.363,10.075-24.661,15.347-36.892
			c-9.12-9.52-18.363-18.922-27.724-28.206c31.136-5.789,62.359-10.704,93.769-14.757C431.15,53.214,433.887,75.132,436.629,97.049z
			"/>
		
			<path fill-rule="evenodd" clip-rule="evenodd" fill="#6D4323" stroke="#FFFFFF" stroke-width="1.636" stroke-linecap="round" stroke-linejoin="round" stroke-miterlimit="10" d="
			M787.814,96.821c30.633,3.929,61.076,8.699,91.441,14.33c-4.955-12.363-10.076-24.66-15.347-36.892
			c9.122-9.519,18.362-18.924,27.726-28.206c-31.773-5.907-63.641-10.9-95.698-14.995C793.229,52.979,790.525,74.9,787.814,96.821z"
			/>
		<pattern  id="SVGID_1_" xlink:href="#_x31_0_lpi_40_x25_" patternTransform="matrix(0.4907 0 0 0.4907 -4244.1675 -4329.8955)">
		</pattern>
		
			<path fill-rule="evenodd" clip-rule="evenodd" fill="url(#SVGID_1_)" stroke="#FFFFFF" stroke-width="1.636" stroke-linecap="round" stroke-linejoin="round" stroke-miterlimit="10" d="
			M436.629,97.049c-29.741,3.85-59.305,8.496-88.794,13.947c4.956-12.362,10.095-24.651,15.366-36.882
			c-9.111-9.528-18.35-18.934-27.705-28.222c30.853-5.727,61.797-10.582,92.919-14.597C431.15,53.214,433.887,75.132,436.629,97.049
			z"/>
		<pattern  id="SVGID_2_" xlink:href="#_x31_0_lpi_40_x25_" patternTransform="matrix(0.4839 0 0 0.4907 -4280.3374 -4329.894)">
		</pattern>
		
			<path fill-rule="evenodd" clip-rule="evenodd" fill="url(#SVGID_2_)" stroke="#FFFFFF" stroke-width="1.636" stroke-linecap="round" stroke-linejoin="round" stroke-miterlimit="10" d="
			M788.633,96.922c30.221,3.89,60.258,8.602,90.218,14.151c-4.863-12.34-9.88-24.622-15.058-36.833
			c9.017-9.54,18.16-18.96,27.417-28.267c-31.35-5.821-62.789-10.753-94.415-14.809C794.07,53.083,791.351,75.003,788.633,96.922z"
			/>
		
			<path fill-rule="evenodd" clip-rule="evenodd" fill="#230E00" stroke="#FFFFFF" stroke-width="1.636" stroke-linecap="round" stroke-linejoin="round" stroke-miterlimit="10" d="
			M384.182,86.365c17.506,3.027,34.942,6.311,52.348,9.871c-0.854-6.824-1.282-10.238-2.135-17.062
			C417.617,81.279,400.875,83.674,384.182,86.365z"/>
		
			<path fill-rule="evenodd" clip-rule="evenodd" fill="#230E00" stroke="#FFFFFF" stroke-width="1.636" stroke-linecap="round" stroke-linejoin="round" stroke-miterlimit="10" d="
			M841.067,86.2c-17.501,3.039-34.933,6.334-52.333,9.908c0.846-6.825,1.27-10.238,2.116-17.062
			C807.63,81.136,824.372,83.523,841.067,86.2z"/>
		
			<path fill-rule="evenodd" clip-rule="evenodd" fill="#6D4323" stroke="#FFFFFF" stroke-width="1.636" stroke-linecap="round" stroke-linejoin="round" stroke-miterlimit="10" d="
			M841.256,86.225C689.353,62.631,535.878,62.688,383.991,86.39c-3.505-21.806-7.011-43.612-10.524-65.417
			C532.294-3.845,692.888-3.91,851.732,20.799C848.241,42.608,844.745,64.416,841.256,86.225z"/>
		<g>
			<path fill="#FFFFFF" d="M424.762,68.811c-0.553,0.072-0.828,0.109-1.381,0.182c-0.459,0.061-0.726-0.17-0.795-0.693
				c-0.578-4.376-0.865-6.564-1.443-10.94c-0.097-0.734,0.104-1.139,0.605-1.205c0.48-0.063,0.719-0.094,1.199-0.157
				c0.314-0.041,0.536,0.047,0.668,0.254c0.133,0.21,0.373,0.966,0.733,2.252c1.387,4.953,3.469,7.282,6.162,6.942
				c1.405-0.178,2.427-0.954,3.071-2.332c0.646-1.378,0.858-2.977,0.634-4.797c-0.231-1.878-0.879-3.569-1.944-5.069
				c-1.064-1.498-3.008-3.474-5.838-5.873c-2.183-1.85-3.771-3.286-4.738-4.334c-0.966-1.045-1.797-2.258-2.485-3.644
				c-0.688-1.382-1.146-2.948-1.376-4.69c-0.425-3.212,0.018-5.958,1.328-8.233c1.312-2.275,3.109-3.562,5.389-3.852
				c1.048-0.133,2.208,0.027,3.478,0.485c0.566,0.204,0.943,0.295,1.134,0.272s0.387-0.139,0.597-0.314
				c0.2-0.167,0.485-0.271,0.829-0.313c0.422-0.052,0.634-0.079,1.056-0.13c0.551-0.067,0.857,0.162,0.921,0.685
				c0.467,3.848,0.7,5.771,1.167,9.618c0.059,0.486-0.12,0.754-0.534,0.805c-0.521,0.063-0.78,0.095-1.301,0.159
				c-0.34,0.042-0.574-0.027-0.699-0.197c-0.126-0.17-0.398-0.85-0.81-2.038c-1.412-4.081-3.122-6.016-5.132-5.761
				c-1.081,0.137-1.891,0.713-2.424,1.728c-0.531,1.011-0.722,2.132-0.564,3.349c0.183,1.414,0.752,2.811,1.705,4.194
				c0.952,1.382,2.722,3.131,5.291,5.247c3.292,2.71,5.631,5.178,7.022,7.376c1.394,2.201,2.252,4.67,2.579,7.399
				c0.44,3.682-0.127,6.787-1.684,9.316c-1.556,2.527-3.59,3.949-6.11,4.267c-1.123,0.142-2.508,0.014-4.067-0.433
				c-0.503-0.144-0.86-0.215-1.063-0.188c-0.186,0.024-0.416,0.167-0.681,0.391C425.064,68.702,424.888,68.794,424.762,68.811z"/>
			<path fill="#FFFFFF" d="M464.646,64.159c-7.586,0.779-11.378,1.193-18.956,2.072c-0.438,0.051-0.687-0.156-0.741-0.622
				c-0.06-0.511-0.09-0.767-0.149-1.278c-0.048-0.408,0.219-0.889,0.76-1.444c0.485-0.499,0.673-1.238,0.563-2.186
				c-1.321-11.478-2.644-22.955-3.966-34.433c-0.116-1.006-0.557-1.735-1.314-2.146c-0.509-0.276-0.795-0.634-0.847-1.081
				c-0.064-0.558-0.098-0.837-0.162-1.395c-0.043-0.368,0.165-0.579,0.617-0.631c5.865-0.68,8.799-1.006,14.669-1.628
				c0.265-0.028,0.771-0.111,1.504-0.248c0.658-0.124,1.071-0.198,1.244-0.216c0.629-0.065,0.962,0.075,0.998,0.425
				c0.354,3.424,0.531,5.136,0.885,8.561c0.046,0.446,0.033,0.718-0.044,0.813c-0.076,0.095-0.312,0.163-0.708,0.204
				c-0.42,0.044-0.633,0.066-1.053,0.11c-0.453,0.047-0.732-0.206-0.853-0.733c-0.336-1.475-0.879-2.751-1.531-3.768
				s-1.797-1.444-3.43-1.268c-1.436,0.155-2.153,0.235-3.588,0.394c0.729,6.587,1.093,9.879,1.821,16.466
				c0.518-0.057,0.775-0.086,1.293-0.143c0.808-0.089,1.346-0.307,1.611-0.66c0.264-0.35,0.525-1.407,0.804-3.134
				c0.09-0.556,0.163-0.869,0.214-0.935c0.049-0.062,0.214-0.113,0.495-0.143c0.499-0.054,0.749-0.082,1.248-0.135
				c0.487-0.052,0.758,0.168,0.81,0.653c0.465,4.389,0.696,6.584,1.161,10.974c0.049,0.465-0.148,0.722-0.601,0.771
				c-0.517,0.055-0.773,0.082-1.29,0.137c-0.278,0.03-0.485-0.026-0.61-0.156c-0.124-0.129-0.323-0.567-0.591-1.305
				c-0.485-1.339-0.943-2.139-1.368-2.396c-0.427-0.258-0.987-0.352-1.68-0.275c-0.449,0.049-0.674,0.075-1.123,0.125
				c0.815,7.367,1.224,11.05,2.039,18.417c1.498-0.166,2.246-0.248,3.744-0.41c1.387-0.15,2.311-0.598,2.775-1.344
				c0.464-0.743,0.922-2.711,1.406-5.869c0.11-0.718,0.408-1.103,0.895-1.154c0.479-0.05,0.72-0.075,1.199-0.125
				c0.465-0.048,0.721,0.172,0.771,0.654C463.998,57.868,464.215,59.965,464.646,64.159z"/>
			<path fill="#FFFFFF" d="M483.456,41.392c-0.676-7.656-1.012-11.485-1.687-19.142c-0.088-0.995-0.516-1.72-1.282-2.152
				c-0.516-0.291-0.807-0.667-0.849-1.134c-0.046-0.515-0.071-0.772-0.117-1.287c-0.04-0.447,0.193-0.693,0.686-0.737
				c2.584-0.23,3.878-0.343,6.463-0.562c0.418-0.036,0.646,0.153,0.681,0.559c0.045,0.537,0.067,0.805,0.112,1.342
				c0.038,0.448-0.169,0.875-0.613,1.256c-0.687,0.589-1.003,1.37-0.92,2.34c1.115,13.076,2.237,26.151,3.351,39.227
				c0.054,0.625-0.192,0.96-0.728,1.006c-0.488,0.042-0.733,0.063-1.222,0.106c-0.557,0.048-0.972-0.229-1.246-0.835
				c-4.798-10.259-9.641-20.493-14.536-30.706c1.035,10.829,1.551,16.245,2.588,27.074c0.097,1.008,0.522,1.733,1.282,2.168
				c0.502,0.287,0.778,0.652,0.82,1.1c0.05,0.523,0.072,0.785,0.122,1.309c0.042,0.448-0.174,0.696-0.65,0.741
				c-2.475,0.235-3.711,0.355-6.185,0.601c-0.405,0.04-0.626-0.146-0.666-0.552c-0.055-0.548-0.082-0.821-0.137-1.369
				c-0.043-0.427,0.163-0.839,0.604-1.237c0.65-0.585,0.934-1.384,0.836-2.374c-1.133-11.498-2.265-22.996-3.396-34.495
				c-0.097-0.988-0.54-1.718-1.307-2.137c-0.516-0.282-0.812-0.654-0.858-1.121c-0.051-0.514-0.078-0.771-0.129-1.284
				c-0.045-0.447,0.181-0.692,0.676-0.741c2.412-0.239,3.62-0.355,6.033-0.585c0.434-0.041,0.737-0.016,0.896,0.077
				c0.162,0.094,0.338,0.335,0.529,0.73C477.002,27.689,479.171,32.251,483.456,41.392z"/>
			<path fill="#FFFFFF" d="M503.554,55.234c0.076,1.009,0.488,1.752,1.229,2.196c0.498,0.298,0.774,0.667,0.808,1.115
				c0.039,0.524,0.059,0.786,0.098,1.31c0.033,0.449-0.19,0.692-0.669,0.728c-3.462,0.258-5.193,0.393-8.654,0.671
				c-0.405,0.033-0.627-0.157-0.66-0.563c-0.045-0.549-0.066-0.822-0.111-1.371c-0.035-0.428,0.18-0.836,0.629-1.226
				c0.659-0.572,0.952-1.367,0.873-2.359c-0.92-11.518-1.837-23.035-2.756-34.553c-0.079-0.99-0.502-1.726-1.259-2.158
				c-0.511-0.292-0.801-0.671-0.839-1.139c-0.042-0.514-0.065-0.771-0.107-1.285c-0.036-0.448,0.194-0.689,0.691-0.729
				c3.568-0.287,5.355-0.424,8.926-0.69c0.419-0.031,0.644,0.158,0.674,0.564c0.04,0.538,0.059,0.805,0.099,1.343
				c0.033,0.448-0.192,0.868-0.654,1.253c-0.686,0.572-0.989,1.358-0.916,2.329C501.821,32.191,502.688,43.712,503.554,55.234z"/>
			<path fill="#FFFFFF" d="M522.686,59.958c-3.867,0.241-6.88-1.609-9.061-5.561c-2.184-3.957-3.537-9.539-4.044-16.76
				c-0.507-7.215,0.063-13.009,1.742-17.376c1.679-4.366,4.412-6.679,8.171-6.914c3.531-0.221,6.452,1.571,8.734,5.354
				c2.286,3.79,3.624,9.515,4.043,17.166c0.428,7.811-0.253,13.728-2.025,17.752C528.474,57.644,525.956,59.754,522.686,59.958z
				 M522.18,56.824c0.834-0.052,1.57-0.663,2.194-1.832c0.627-1.173,0.933-4.304,0.929-9.381c-0.004-5.075-0.129-9.729-0.38-13.951
				c-0.227-3.814-0.642-6.943-1.244-9.376c-0.604-2.436-1.193-3.991-1.769-4.67c-0.573-0.676-1.282-0.992-2.124-0.939
				c-0.703,0.044-1.32,0.359-1.846,0.936c-0.527,0.579-0.901,1.589-1.123,3.019c-0.223,1.433-0.322,4.212-0.292,8.333
				c0.031,4.119,0.196,8.389,0.485,12.806c0.36,5.507,0.961,9.415,1.799,11.723C519.649,55.803,520.771,56.912,522.18,56.824z"/>
			<path fill="#FFFFFF" d="M546.2,36.767c0.287,6.341,0.433,9.51,0.721,15.851c0.046,1.011,0.436,1.77,1.158,2.231
				c0.489,0.313,0.757,0.69,0.776,1.139c0.023,0.525,0.035,0.787,0.059,1.312c0.02,0.45-0.211,0.686-0.694,0.707
				c-3.464,0.155-5.196,0.238-8.66,0.413c-0.407,0.021-0.619-0.175-0.64-0.582c-0.028-0.55-0.044-0.824-0.072-1.374
				c-0.021-0.429,0.204-0.832,0.663-1.208c0.679-0.556,0.996-1.337,0.946-2.331c-0.573-11.54-1.146-23.08-1.724-34.619
				c-0.049-0.992-0.453-1.737-1.2-2.195c-0.5-0.306-0.778-0.694-0.802-1.163c-0.026-0.516-0.041-0.772-0.067-1.288
				c-0.022-0.449,0.216-0.683,0.71-0.708c3.001-0.152,4.502-0.223,7.503-0.36c4.238-0.193,7.506,0.655,9.791,2.517
				c2.285,1.863,3.492,4.641,3.628,8.327c0.216,5.87-7.45,11.691-7.45,11.691c-0.004,0.131,2.782,1.551,3.619,2.506
				c0.833,0.95,1.503,2.373,2.007,4.268c0.963,3.677,1.441,5.516,2.395,9.194c0.305,1.18,0.593,1.979,0.856,2.386
				c0.265,0.409,0.711,0.786,1.281,1.139c0.173,0.107,0.262,0.294,0.271,0.547c0.023,0.667,0.037,1.002,0.061,1.669
				c0.016,0.429-0.179,0.65-0.585,0.665c-2.215,0.08-3.325,0.121-5.539,0.209c-0.535,0.021-0.889-0.276-1.062-0.9
				c-1.782-6.37-2.68-9.554-4.494-15.919c-0.491-1.754-1-2.889-1.519-3.391C547.617,36.999,546.971,36.752,546.2,36.767z
				 M545.267,16.123c0.311,6.867,0.467,10.301,0.778,17.167c2.036-0.092,3.497-0.822,4.402-2.188
				c0.904-1.365,1.292-3.745,1.152-7.137c-0.137-3.317-0.717-5.473-1.74-6.476C548.836,16.485,547.305,16.03,545.267,16.123z"/>
			<path fill="#FFFFFF" d="M568.925,57.231c-0.556,0.017-0.833,0.024-1.389,0.042c-0.466,0.015-0.706-0.24-0.723-0.767
				c-0.141-4.412-0.212-6.617-0.353-11.029c-0.023-0.74,0.222-1.123,0.725-1.139c0.481-0.015,0.723-0.024,1.204-0.039
				c0.317-0.01,0.533,0.102,0.643,0.32c0.11,0.221,0.274,0.999,0.505,2.315c0.889,5.068,2.72,7.588,5.43,7.518
				c1.407-0.037,2.5-0.706,3.278-2.014c0.776-1.307,1.146-2.878,1.104-4.711c-0.044-1.892-0.518-3.636-1.429-5.236
				c-0.908-1.596-2.64-3.755-5.214-6.424c-1.984-2.057-3.42-3.647-4.274-4.784c-0.854-1.135-1.556-2.428-2.101-3.872
				c-0.546-1.445-0.851-3.049-0.906-4.806c-0.104-3.238,0.604-5.926,2.132-8.06c1.53-2.135,3.445-3.236,5.735-3.297
				c1.05-0.028,2.191,0.248,3.404,0.831c0.539,0.259,0.909,0.387,1.099,0.383s0.4-0.1,0.624-0.253
				c0.214-0.146,0.513-0.223,0.854-0.23c0.424-0.01,0.637-0.014,1.061-0.023c0.555-0.012,0.836,0.247,0.847,0.773
				c0.082,3.875,0.124,5.812,0.206,9.686c0.011,0.489-0.192,0.737-0.611,0.747c-0.522,0.011-0.784,0.018-1.307,0.029
				c-0.342,0.008-0.569-0.082-0.677-0.265c-0.106-0.181-0.312-0.885-0.601-2.109c-0.994-4.205-2.501-6.295-4.523-6.242
				c-1.091,0.029-1.946,0.522-2.577,1.479c-0.63,0.955-0.928,2.047-0.893,3.273c0.041,1.425,0.469,2.873,1.277,4.344
				c0.808,1.47,2.39,3.386,4.732,5.748c3.001,3.024,5.076,5.71,6.242,8.036c1.167,2.328,1.773,4.869,1.827,7.617
				c0.073,3.707-0.797,6.741-2.593,9.103c-1.794,2.361-3.956,3.571-6.49,3.638c-1.131,0.029-2.496-0.234-4-0.834
				c-0.483-0.193-0.831-0.299-1.036-0.293c-0.185,0.005-0.425,0.123-0.712,0.32C569.235,57.152,569.052,57.227,568.925,57.231z"/>
			<path fill="#FFFFFF" d="M603.724,51.145c-0.076-11.553-0.148-23.105-0.222-34.658c-0.006-0.993-0.38-1.76-1.102-2.246
				c-0.487-0.328-0.748-0.726-0.752-1.195c-0.004-0.516-0.006-0.772-0.01-1.288c-0.003-0.449,0.24-0.674,0.739-0.677
				c4.138-0.03,6.206-0.038,10.344-0.039c1.301,8.536,1.943,12.803,3.208,21.341c1.288-8.533,1.942-12.797,3.268-21.328
				c4.185,0.017,6.275,0.032,10.459,0.078c0.42,0.004,0.628,0.214,0.623,0.621c-0.006,0.539-0.01,0.808-0.016,1.347
				c-0.005,0.449-0.265,0.847-0.759,1.192c-0.728,0.508-1.102,1.269-1.111,2.242c-0.117,11.553-0.235,23.105-0.354,34.658
				c-0.011,1.012,0.349,1.775,1.062,2.292c0.463,0.335,0.688,0.73,0.684,1.179c-0.006,0.525-0.009,0.788-0.015,1.313
				c-0.005,0.45-0.247,0.674-0.731,0.669c-3.346-0.037-5.017-0.05-8.362-0.067c-0.385-0.002-0.58-0.209-0.578-0.617
				c0.003-0.55,0.002-0.825,0.005-1.375c0.002-0.43,0.234-0.83,0.695-1.17c0.711-0.524,1.09-1.28,1.096-2.277
				c0.078-11.829,0.146-23.657,0.217-35.486c-2.133,13.628-4.22,27.263-6.24,40.908c-0.887-0.001-1.33-0.001-2.217-0.002
				c-1.973-13.648-3.992-27.289-6.065-40.922c0.042,11.829,0.082,23.657,0.127,35.485c0.004,1.017,0.362,1.787,1.063,2.28
				c0.474,0.333,0.722,0.72,0.723,1.172c0.001,0.525,0.001,0.789,0.002,1.314c0.001,0.45-0.24,0.675-0.717,0.677
				c-2.48,0.007-3.72,0.014-6.199,0.032c-0.404,0.003-0.609-0.203-0.612-0.61c-0.004-0.55-0.009-0.825-0.013-1.375
				c-0.003-0.429,0.24-0.82,0.717-1.176C603.378,52.912,603.73,52.14,603.724,51.145z"/>
			<path fill="#FFFFFF" d="M643.407,17.111c-0.091-0.797-0.138-1.195-0.229-1.993c-0.08-0.648-0.114-1.008-0.112-1.086
				c0.004-0.195,0.152-0.358,0.44-0.489c1.957-0.886,2.938-1.328,4.9-2.207c0.077-0.037,0.163-0.051,0.258-0.049
				c0.27,0.006,0.437,0.183,0.505,0.534c2.268,13.284,4.471,26.579,6.601,39.886c0.109,0.725,0.257,1.247,0.443,1.564
				c0.186,0.316,0.556,0.659,1.098,1.028c0.418,0.285,0.625,0.602,0.614,0.957c-0.016,0.514-0.027,0.771-0.043,1.286
				c-0.015,0.469-0.2,0.697-0.55,0.687c-3.712-0.113-5.567-0.163-9.279-0.252c-0.499-0.012-0.739-0.252-0.729-0.721
				c0.012-0.514,0.018-0.771,0.029-1.286c0.011-0.453,0.329-0.821,0.923-1.124c0.728-0.372,1.113-0.937,1.131-1.643
				c0.005-0.194-0.008-0.417-0.037-0.671c-0.406-2.458-0.607-3.687-1.018-6.144c-2.928-0.07-4.393-0.102-7.32-0.157
				c-0.513,2.346-0.771,3.518-1.28,5.864c-0.06,0.253-0.088,0.437-0.09,0.553c-0.011,0.587,0.406,1.237,1.209,1.955
				c0.526,0.471,0.786,0.892,0.779,1.244c-0.01,0.514-0.016,0.771-0.025,1.286c-0.009,0.469-0.285,0.698-0.823,0.688
				c-2.321-0.044-3.481-0.063-5.804-0.098c-0.647-0.01-0.97-0.25-0.963-0.719c0.009-0.608,0.014-0.913,0.022-1.521
				c0.006-0.41,0.221-0.739,0.627-0.984c0.766-0.463,1.281-1.297,1.542-2.464C638.589,39.72,640.98,28.412,643.407,17.111z
				 M645.168,26.55c-1.316,5.979-1.968,8.969-3.26,14.951c2.325,0.045,3.487,0.072,5.812,0.126
				C646.711,35.596,646.201,32.58,645.168,26.55z"/>
			<path fill="#FFFFFF" d="M674.577,38.843c2.835,0.118,4.253,0.181,7.088,0.312c0.47,0.022,0.764,0.09,0.879,0.202
				c0.114,0.111,0.168,0.345,0.151,0.697c-0.008,0.157-0.064,0.503-0.135,1.017c-0.17,1.246-0.253,2.315-0.292,3.153
				c-0.154,3.274-0.23,4.913-0.385,8.187c-0.025,0.546,0.098,0.979,0.362,1.249c0.203,0.206,0.313,0.473,0.298,0.805
				c-0.021,0.422-0.03,0.633-0.051,1.055c-0.02,0.406-0.271,0.771-0.746,1.087c-0.481,0.318-1.462,0.721-2.927,1.201
				c-1.468,0.481-3.092,0.682-4.868,0.609c-10.802-0.441-12.344-14.047-11.854-22.075c0.244-3.994,0.679-8.036,1.638-11.756
				c0.96-3.723,2.515-6.827,4.654-9.304c2.14-2.476,4.387-3.673,6.717-3.577c1.164,0.048,2.431,0.435,3.77,1.164
				c0.39,0.212,0.699,0.325,0.927,0.335c0.113,0.005,0.342-0.066,0.672-0.208c0.252-0.108,0.464-0.158,0.637-0.15
				c0.446,0.02,0.67,0.03,1.116,0.051c0.536,0.025,0.791,0.3,0.767,0.824c-0.181,3.86-0.269,5.792-0.449,9.652
				c-0.026,0.566-0.28,0.836-0.754,0.814c-0.478-0.022-0.716-0.033-1.193-0.055c-0.38-0.017-0.602-0.071-0.661-0.161
				s-0.194-0.717-0.385-1.877c-0.752-4.577-2.313-6.93-4.698-7.028c-1.146-0.047-2.111,0.449-2.894,1.492
				c-0.781,1.041-1.412,3.507-1.871,7.377c-0.46,3.876-0.765,7.743-0.911,11.602c-0.154,4.053-0.129,7.397,0.069,10.026
				c0.198,2.632,0.476,4.627,0.832,5.977c0.357,1.351,0.808,2.279,1.355,2.791c0.545,0.506,1.197,0.779,1.956,0.81
				c1.634,0.067,2.507-1.124,2.612-3.581c0.109-2.527,0.164-3.791,0.272-6.318c0.047-1.088-0.056-1.879-0.297-2.37
				c-0.239-0.488-0.772-0.937-1.601-1.34c-0.402-0.196-0.599-0.463-0.584-0.814c0.021-0.493,0.031-0.738,0.052-1.231
				C673.865,39.038,674.105,38.824,674.577,38.843z"/>
			<path fill="#FFFFFF" d="M698.57,19.246c-0.061-0.8-0.092-1.199-0.153-1.999c-0.054-0.65-0.075-1.011-0.07-1.089
				c0.011-0.195,0.16-0.354,0.456-0.474c1.989-0.813,2.985-1.217,4.979-2.023c0.079-0.034,0.169-0.045,0.267-0.04
				c0.264,0.016,0.425,0.199,0.48,0.552c1.774,13.36,3.486,26.729,5.132,40.105c0.08,0.728,0.208,1.255,0.381,1.58
				c0.173,0.323,0.532,0.68,1.061,1.069c0.408,0.301,0.599,0.625,0.574,0.978c-0.035,0.513-0.053,0.77-0.088,1.283
				c-0.032,0.468-0.221,0.691-0.574,0.667c-3.707-0.25-5.561-0.37-9.268-0.596c-0.499-0.03-0.734-0.279-0.706-0.748
				c0.031-0.514,0.046-0.77,0.077-1.283c0.027-0.452,0.361-0.808,0.963-1.088c0.745-0.347,1.153-0.896,1.197-1.6
				c0.012-0.193,0.002-0.418-0.02-0.674c-0.314-2.471-0.469-3.708-0.787-6.178c-2.924-0.178-4.385-0.264-7.309-0.428
				c-0.601,2.325-0.9,3.489-1.497,5.814c-0.067,0.25-0.108,0.433-0.115,0.549c-0.032,0.586,0.365,1.251,1.14,1.998
				c0.506,0.488,0.751,0.921,0.731,1.272c-0.029,0.514-0.043,0.77-0.072,1.283c-0.026,0.468-0.309,0.688-0.845,0.658
				c-2.321-0.13-3.48-0.194-5.802-0.314c-0.646-0.034-0.957-0.284-0.933-0.752c0.031-0.608,0.047-0.911,0.078-1.519
				c0.021-0.41,0.248-0.73,0.662-0.961c0.78-0.435,1.331-1.25,1.634-2.406C692.922,41.663,695.729,30.451,698.57,19.246z
				 M699.984,28.745c-1.536,5.927-2.298,8.891-3.811,14.821c2.324,0.131,3.484,0.2,5.808,0.341
				C701.194,37.842,700.795,34.81,699.984,28.745z"/>
			<path fill="#FFFFFF" d="M720.047,14.853c6.74,0.481,10.106,0.742,16.843,1.3c0.627,0.052,0.922,0.342,0.878,0.865
				c-0.068,0.817-0.358,1.87-0.868,3.161c-4.861,12.311-9.63,24.658-14.311,37.038c1.334,0.101,2,0.151,3.334,0.254
				c2.85,0.221,4.724-1.636,5.616-5.572c0.204-0.901,0.377-1.438,0.512-1.603c0.136-0.165,0.354-0.236,0.65-0.211
				c0.537,0.044,0.805,0.064,1.342,0.109c0.393,0.033,0.57,0.264,0.534,0.693c-0.355,4.271-0.53,6.406-0.886,10.677
				c-7.021-0.584-10.535-0.856-17.561-1.355c-0.519-0.037-0.753-0.337-0.713-0.903c0.036-0.513,0.053-0.77,0.089-1.283
				c4.861-13.017,9.855-25.98,14.893-38.93c-1.425-0.112-2.138-0.168-3.562-0.276c-1.385-0.105-2.38,0.155-2.979,0.775
				c-0.6,0.62-1.108,1.898-1.539,3.821c-0.193,0.865-0.338,1.339-0.43,1.422c-0.091,0.081-0.31,0.108-0.647,0.084
				c-0.524-0.038-0.789-0.057-1.313-0.095c-0.396-0.028-0.58-0.237-0.552-0.627C719.645,20.459,719.779,18.59,720.047,14.853z"/>
			<path fill="#FFFFFF" d="M747.198,57.285c-0.093,1.008,0.188,1.812,0.843,2.369c0.442,0.377,0.659,0.786,0.617,1.233
				c-0.049,0.523-0.074,0.784-0.123,1.308c-0.042,0.448-0.305,0.652-0.786,0.607c-3.457-0.321-5.187-0.477-8.646-0.778
				c-0.404-0.035-0.591-0.258-0.556-0.665c0.048-0.548,0.069-0.823,0.117-1.371c0.037-0.428,0.318-0.796,0.825-1.105
				c0.749-0.457,1.167-1.189,1.254-2.18c1.011-11.51,2.021-23.019,3.031-34.529c0.087-0.989-0.211-1.785-0.889-2.34
				c-0.455-0.372-0.678-0.792-0.638-1.26c0.045-0.514,0.065-0.771,0.11-1.286c0.039-0.448,0.309-0.646,0.803-0.604
				c3.567,0.311,5.35,0.47,8.915,0.802c0.418,0.039,0.61,0.265,0.572,0.67c-0.05,0.537-0.074,0.805-0.124,1.341
				c-0.042,0.447-0.333,0.823-0.854,1.126c-0.767,0.447-1.199,1.174-1.289,2.143C749.321,34.273,748.26,45.779,747.198,57.285z"/>
			<path fill="#FFFFFF" d="M771.717,44.23c0.826-7.642,1.239-11.462,2.065-19.104c0.107-0.993-0.175-1.79-0.841-2.36
				c-0.45-0.386-0.663-0.812-0.613-1.278c0.055-0.514,0.084-0.77,0.139-1.284c0.048-0.446,0.317-0.644,0.812-0.591
				c2.58,0.277,3.872,0.418,6.451,0.707c0.419,0.047,0.602,0.275,0.556,0.68c-0.061,0.536-0.09,0.803-0.15,1.338
				c-0.05,0.446-0.334,0.826-0.845,1.114c-0.787,0.444-1.248,1.148-1.355,2.116c-1.452,13.043-2.896,26.087-4.345,39.13
				c-0.069,0.624-0.371,0.904-0.909,0.845c-0.487-0.054-0.729-0.081-1.217-0.134c-0.555-0.061-0.911-0.413-1.064-1.062
				c-2.708-10.997-5.471-21.977-8.287-32.946c-1.09,10.824-1.635,16.234-2.725,27.058c-0.102,1.007,0.178,1.804,0.837,2.38
				c0.434,0.379,0.635,0.79,0.589,1.236c-0.054,0.523-0.08,0.785-0.134,1.308c-0.046,0.448-0.31,0.647-0.785,0.599
				c-2.474-0.251-3.708-0.373-6.183-0.613c-0.4-0.039-0.582-0.264-0.543-0.67c0.053-0.548,0.078-0.822,0.131-1.37
				c0.041-0.427,0.323-0.792,0.835-1.097c0.752-0.447,1.179-1.177,1.275-2.167c1.125-11.499,2.253-22.998,3.378-34.497
				c0.097-0.988-0.189-1.789-0.861-2.348c-0.452-0.377-0.672-0.799-0.627-1.266c0.05-0.514,0.076-0.771,0.126-1.285
				c0.043-0.447,0.311-0.643,0.802-0.595c2.414,0.235,3.621,0.354,6.034,0.598c0.435,0.044,0.726,0.129,0.863,0.25
				c0.141,0.124,0.267,0.395,0.378,0.819C768.045,29.532,769.288,34.43,771.717,44.23z"/>
			<path fill="#FFFFFF" d="M799.562,68.558c-7.568-0.979-11.355-1.444-18.934-2.323c-0.442-0.051-0.637-0.309-0.583-0.775
				c0.059-0.511,0.089-0.767,0.147-1.278c0.047-0.408,0.418-0.814,1.072-1.232c0.584-0.373,0.938-1.05,1.048-1.998
				c1.339-11.476,2.679-22.952,4.018-34.428c0.117-1.006-0.147-1.814-0.79-2.39c-0.43-0.385-0.632-0.8-0.58-1.247
				c0.064-0.558,0.097-0.836,0.161-1.395c0.042-0.368,0.295-0.526,0.751-0.474c5.864,0.68,8.794,1.036,14.652,1.773
				c0.268,0.034,0.777,0.069,1.521,0.104c0.672,0.031,1.098,0.052,1.268,0.074c0.628,0.08,0.916,0.292,0.871,0.642
				c-0.438,3.414-0.657,5.123-1.096,8.537c-0.058,0.445-0.136,0.706-0.232,0.781s-0.341,0.088-0.735,0.038
				c-0.42-0.054-0.632-0.081-1.052-0.134c-0.453-0.058-0.657-0.367-0.654-0.907c0.009-1.51-0.229-2.881-0.635-4.021
				s-1.421-1.817-3.055-2.02c-1.433-0.177-2.149-0.265-3.582-0.438c-0.797,6.579-1.196,9.87-1.994,16.448
				c0.518,0.062,0.775,0.094,1.293,0.157c0.807,0.099,1.385,0.009,1.725-0.274c0.336-0.28,0.832-1.248,1.496-2.868
				c0.214-0.521,0.358-0.808,0.423-0.859c0.062-0.052,0.234-0.062,0.518-0.027c0.495,0.062,0.743,0.093,1.238,0.155
				c0.487,0.061,0.701,0.337,0.641,0.821c-0.552,4.379-0.825,6.567-1.377,10.946c-0.059,0.464-0.313,0.67-0.759,0.614
				c-0.515-0.064-0.771-0.097-1.286-0.161c-0.28-0.035-0.465-0.136-0.56-0.292c-0.096-0.159-0.188-0.628-0.279-1.407
				c-0.167-1.414-0.428-2.298-0.783-2.646c-0.354-0.347-0.879-0.567-1.573-0.651c-0.449-0.055-0.673-0.082-1.122-0.136
				c-0.892,7.358-1.339,11.038-2.23,18.396c1.496,0.182,2.243,0.273,3.739,0.458c1.385,0.171,2.389-0.055,3.012-0.674
				c0.621-0.617,1.523-2.425,2.715-5.392c0.271-0.674,0.653-0.979,1.134-0.917c0.479,0.061,0.717,0.092,1.195,0.153
				c0.466,0.06,0.668,0.334,0.605,0.814C800.374,62.287,800.103,64.376,799.562,68.558z"/>
		</g>
	</g>
</g>
<g>
	<g>
		<pattern  id="SVGID_3_" xlink:href="#_x31_0_lpi_40_x25_" patternTransform="matrix(0.2648 0 0 0.2648 -5680.8545 -5761.6831)">
		</pattern>
		<path fill="url(#SVGID_3_)" d="M9.253,144.676c-0.191-0.693,0.17-1.322,1.097-1.891c4.238-2.608,6.599-5.277,7.088-8.001
			l4.675-25.661c-4.432,2.408-8.065,4.074-10.888,5.002c-0.437-2.351,0.122-4.526,1.681-6.532c-1.118-1.879-1.313-3.985-0.584-6.317
			c0.731-2.38,1.461-3.637,2.194-3.778c-0.342,1.139-0.365,1.994-0.075,2.572c0.244,0.636,1.069,0.939,2.483,0.915
			c1.802-0.197,4.167-0.918,7.088-2.156l10.008-55.245c0.487-2.67-1.048-4.569-4.602-5.694c-0.781-0.24-0.928-0.798-0.439-1.672
			l9.132-1.738c1.315-0.008,2.485,0.621,3.504,1.885c0.246-0.532,0.54-0.977,0.881-1.334c2.239-2.376,3.993-2.709,5.26-1.005
			c-2.048,0.735-3.216,1.856-3.508,3.374l0.803,4.084l0.877,4.652l0.292,1.259l7.16,36.771c2.678-0.998,4.772-1.448,6.282-1.346
			c5.553,0.452,8.839,3.332,9.863,8.637c0.292,2.918-0.975,5.424-3.797,7.521c-2.875,2.108-4.776,1.839-5.698-0.814
			c-1.269-3.503-0.124-6.114,3.432-7.813c-0.487-2.292-2.703-2.92-6.648-1.874c-0.538,0.152-1.34,0.5-2.413,1.046l7.964,40.854
			c1.996,8.626,4.115,13.896,6.358,15.81c2.092,1.742,3.821,1.898,5.184,0.47c-1.557-2.084-1.143-4.14,1.243-6.154
			c1.752-1.455,3.07-1.121,3.944,1c0.926,2.163,0.658,4.186-0.802,6.07c-2.682,3.387-6.089,4.427-10.229,3.123
			c-1.462-0.452-4.287-3.834-8.473-10.146c-0.099,0.163-0.17,0.298-0.221,0.406c-1.558,2.247-4.484,3.362-8.767,3.356
			c2.043-1.465,2.947-2.928,2.703-4.391l-0.729-3.732l-1.023-5.139c-2-10.185-4.314-22.069-6.943-35.645
			c-6.379,4.049-9.935,6.282-10.666,6.711l-4.749,26.041l-0.95,5.44l-0.731,4.082c-0.29,1.52,0.563,2.087,2.558,1.707
			c-2.972,2.512-5.236,2.946-6.794,1.298c-0.195-0.258-0.342-0.645-0.437-1.158c-1.561,1.808-3.047,2.941-4.461,3.402L9.253,144.676
			z M35.627,93.104c5.455-2.939,8.036-4.335,7.746-4.183c-0.732-3.707-1.951-9.902-3.656-18.585L35.627,93.104z"/>
		<pattern  id="SVGID_4_" xlink:href="#_x31_0_lpi_40_x25_" patternTransform="matrix(0.2648 0 0 0.2648 -5680.8545 -5761.6831)">
		</pattern>
		<path fill="url(#SVGID_4_)" d="M76.834,132.146l-0.075-0.35v-0.221v-0.077l0.075-0.308l0.07-0.156l0.075-0.159l0.074-0.015
			l0.071-0.084l0.076-0.089v-0.073l0.145-0.101l0.145-0.103l0.145-0.101l0.073-0.016l0.149-0.099l0.072-0.087l0.145-0.028
			l0.073-0.086l0.22-0.117l0.072-0.012l0.22-0.116l0.145-0.025l0.074-0.087l0.145-0.031l0.22-0.115l0.145-0.1l0.076-0.084
			l0.143-0.029l0.147-0.101l0.071-0.087l0.149-0.029l0.147-0.101l0.072-0.085l0.145-0.101l0.147-0.104l0.147-0.103l0.073-0.087
			l0.145-0.101l0.147-0.099l0.147-0.103l0.072-0.087l0.145-0.101l0.145-0.172l0.073-0.089l0.149-0.101l0.145-0.175l0.073-0.086
			l0.145-0.176l0.074-0.084l0.147-0.176l0.073-0.16l0.074-0.162l0.143-0.098l0.075-0.16l0.074-0.16l0.147-0.246l0.071-0.162
			l0.074-0.161l0.069-0.161c0-0.046,0.025-0.124,0.078-0.23l0.069-0.161c0-0.05,0-0.124,0-0.22c0.05-0.06,0.076-0.112,0.076-0.161
			l0.073-0.232l0.072-0.234v-0.22c0-0.047,0.025-0.126,0.073-0.232l0.076-0.746v-0.217V97.901l-2.779-2.247
			c-0.195-0.11-0.195-0.28,0-0.512l2.779-3.305V34.193c0-2.58-2-4.39-5.994-5.432c-0.876-0.223-1.143-0.754-0.801-1.599l9.347-1.785
			c1.367-0.016,2.73,0.576,4.093,1.775c0.147-0.512,0.368-0.943,0.658-1.292c1.898-2.311,4.068-2.75,6.502-1.315
			c-2.046,0.439-3.067,1.388-3.067,2.85v32.73c2.773-4.814,6.499-7.67,11.178-8.562c6.329-1.207,11.151,0.259,14.463,4.399
			c2.241,2.887,3.264,5.466,3.07,7.744v20.676l2.773,2.169c0.195,0.161,0.195,0.331,0,0.513l-2.773,3.306v19.141
			c0.193,1.864-1.05,4.803-3.726,8.825c-3.558,5.352-8.162,8.589-13.808,9.72l-1.243,0.234c-4.045,0.82-7.355-1.008-9.935-5.482
			v2.485c0,1.46,1.021,2.019,3.067,1.679c-2.435,2.364-4.604,2.753-6.502,1.168c-0.29-0.238-0.511-0.582-0.658-1.043
			c-1.363,1.721-2.726,2.833-4.093,3.338L76.834,132.146z M94.368,95.923v14.904c2.483,6.006,5.89,8.593,10.225,7.766
			c0.735-0.14,1.388-0.385,1.974-0.741c1.607-1.133,2.705-2.56,3.289-4.279c0.876-2.604,0.072-4.401-2.413-5.389
			c1.414-0.853,2.8-1.019,4.167-0.499c0.826,0.327,1.655,0.924,2.482,1.792v-0.147l-0.075-0.427l-0.074-0.274l-0.073-0.279
			l-0.072,0.012v-0.145l-0.073-0.058l-0.07-0.208l-0.075-0.13v-0.071l-0.072-0.064l-0.073-0.056v-0.147l-0.073-0.058l-0.074-0.06
			l-0.073-0.06v-0.073l-0.074-0.058v-0.072l-0.071-0.06l-0.074,0.011v-0.071l-0.147-0.118l-0.069-0.06v-0.071l-0.076-0.06
			l-0.073-0.06l-0.074-0.058l-0.073-0.062l-0.074-0.058l-0.071-0.06c-0.05-0.039-0.122-0.093-0.223-0.178
			c0.149-1.195,0.223-2.231,0.223-3.107V92.494l-2.85-2.307c-0.147-0.118-0.147-0.288,0-0.51l2.85-3.318V74.229
			c-0.05-9.339-2.63-13.523-7.746-12.545l-0.947,0.251c-3.703,1.34-6.114,3.968-7.234,7.883c-1.269,4.283-0.317,8.558,2.85,12.825
			c-3.799,0.479-6.309-1.305-7.525-5.358l0.073,0.787l0.072,0.572v0.071v0.221c0.487,2.73,1.317,4.594,2.486,5.588v5.261
			l2.849,2.231c0.145,0.168,0.145,0.338,0,0.511L94.368,95.923z"/>
		<pattern  id="SVGID_5_" xlink:href="#_x31_0_lpi_40_x25_" patternTransform="matrix(0.2648 0 0 0.2648 -5680.8545 -5761.6831)">
		</pattern>
		<path fill="url(#SVGID_5_)" d="M149.527,79.555l2.483,2.011c0.191,0.158,0.191,0.327,0,0.508l-2.483,2.96v29.737
			c0,1.459,1.021,2.021,3.063,1.678c-2.382,2.353-4.554,2.74-6.502,1.164c-0.29-0.236-0.509-0.582-0.654-1.042
			c-1.365,1.721-2.729,2.835-4.093,3.339l-9.351,1.785v-0.147l-0.071-0.06v-0.582v-0.076l0.071-0.234l0.072-0.012v-0.075
			c0.149-0.271,0.391-0.511,0.734-0.721c3.989-2.566,5.989-5.138,5.989-7.721V87.74l-3.14-2.539c-0.149-0.118-0.149-0.29,0-0.514
			l3.14-3.668V53.552c0-2.583-2-4.393-5.989-5.434c-0.877-0.22-1.146-0.756-0.806-1.601l9.351-1.785
			c1.413-0.073,2.825,0.366,4.238,1.309c0.147-0.317,0.317-0.593,0.509-0.827c1.904-2.309,4.072-2.748,6.502-1.313
			c-2.042,0.439-3.063,1.388-3.063,2.85V79.555z M150.183,26.17c0,5.312-2.292,8.4-6.868,9.274c-4.53,0.864-6.793-1.357-6.793-6.667
			c0-5.306,2.263-8.394,6.793-9.26C147.892,18.646,150.183,20.864,150.183,26.17z"/>
		<pattern  id="SVGID_6_" xlink:href="#_x31_0_lpi_40_x25_" patternTransform="matrix(0.2648 0 0 0.2648 -5680.8545 -5761.6831)">
		</pattern>
		<path fill="url(#SVGID_6_)" d="M169.25,9.528c1.361-0.018,2.729,0.576,4.09,1.777c0.149-0.512,0.369-0.947,0.661-1.295
			c1.895-2.311,4.062-2.748,6.499-1.313c-2.048,0.439-3.069,1.39-3.069,2.848v62.54l2.632,2.125c0.191,0.163,0.191,0.331,0,0.515
			l-2.632,3.134v29.584c0,1.464,1.021,2.024,3.069,1.682c-2.437,2.363-4.604,2.751-6.499,1.17c-0.292-0.24-0.512-0.588-0.661-1.048
			c-1.361,1.721-2.729,2.831-4.09,3.337l-9.351,1.787c-0.34-0.716-0.076-1.354,0.804-1.907c3.993-2.566,5.99-5.138,5.99-7.719
			V82.268l-2.997-2.421c-0.143-0.118-0.143-0.288,0-0.51l2.997-3.496V18.345c0-2.581-1.997-4.393-5.99-5.433
			c-0.88-0.221-1.145-0.754-0.804-1.599L169.25,9.528z"/>
		<pattern  id="SVGID_7_" xlink:href="#_x31_0_lpi_40_x25_" patternTransform="matrix(0.2648 0 0 0.2648 -5680.8545 -5761.6831)">
		</pattern>
		<path fill="url(#SVGID_7_)" d="M207.166,66.731c-2.437,2.558-3.188,4.554-2.262,5.985c2.531-1.945,4.358-1.611,5.476,1
			c0.78,1.945,0,3.533-2.336,4.753c-2.386,1.189-4.238,1.007-5.553-0.545c-0.143-0.215-0.317-0.499-0.509-0.851v8.91
			c-0.052,1.278,0.021,2.485,0.217,3.614c-0.83,1.375-1.267,2.723-1.315,4.051c0.975-1.599,2.019-2.821,3.142-3.67
			c1.363-1.037,2.75-1.4,4.165-1.085c-2.485,1.934-3.287,4.035-2.411,6.302c0.828,2.229,2.508,3.347,5.041,3.353l-0.367-0.008
			c5.455,0.812,10.548-1.791,15.271-7.808c0.775-1.023,1.069-2.369,0.874-4.038c-0.193-1.717-0.945-2.643-2.263-2.782
			c0.975,1.564,0.486,2.753-1.459,3.567c-1.953,0.81-3.827,0.364-5.625-1.338c-2.002-1.858-1.953-4.426,0.143-7.702
			c1.51-2.235,3.654-3.156,6.428-2.759c2.727,0.356,4.896,1.82,6.506,4.386c2.091,3.302,2.359,7.535,0.801,12.704
			c-3.117,10.238-11.129,15.494-24.035,15.765c-3.703,0.414-6.941-0.381-9.716-2.382c-4.142-2.958-6.214-7.559-6.214-13.794V77.673
			l-3.063-2.485c-0.147-0.114-0.147-0.286,0-0.508l3.063-3.654V54.662c0-8.527,2.974-14.912,8.92-19.164
			c3.505-2.614,7.643-4.38,12.419-5.292c7.985-1.57,13.514,0.758,16.583,6.992c2.921,5.871,2.358,11.043-1.682,15.515
			c-1.9,2.557-6.212,5.666-12.93,9.335C210.475,64.223,208.044,65.784,207.166,66.731z M201.982,68.521
			c0.29-0.732,0.628-1.483,1.021-2.239c1.118-2.013,5.112-5.379,11.982-10.103c3.508-2.423,5.649-5.387,6.427-8.898
			c0.828-3.857-0.729-6.288-4.675-7.288c-1.462-0.213-2.946-0.099-4.455,0.336c-6.77,2.073-10.204,7.67-10.3,16.799V68.521z"/>
		<pattern  id="SVGID_8_" xlink:href="#_x31_0_lpi_40_x25_" patternTransform="matrix(0.2648 0 0 0.2648 -5680.8545 -5761.6831)">
		</pattern>
		<path fill="url(#SVGID_8_)" d="M257.358,54.083v4.459l2.993,2.347c0.148,0.17,0.148,0.338,0,0.515l-2.993,3.565v29.222
			c0,1.462,1.022,2.022,3.068,1.683c-2.435,2.365-4.603,2.753-6.501,1.166c-0.293-0.236-0.514-0.585-0.657-1.044
			c-1.366,1.723-2.728,2.834-4.095,3.341l-9.352,1.781c-0.336-0.711-0.071-1.35,0.807-1.907c3.992-2.562,5.988-5.135,5.988-7.717
			V66.658l-2.628-2.133c-0.197-0.108-0.197-0.278,0-0.51l2.628-3.131V32.975c0-2.58-1.996-4.393-5.988-5.432
			c-0.878-0.222-1.143-0.754-0.807-1.601l10.664-2.036c2.974-0.079,4.629,1.214,4.969,3.875c1.319-3.465,5.211-5.816,11.691-7.052
			l0.291-0.056c0.197-0.037,0.461-0.063,0.807-0.079v-0.072c6.329-1.208,11.124,0.263,14.391,4.411
			c2.287,2.877,3.337,5.453,3.146,7.73v20.529l2.915,2.292c0.149,0.167,0.149,0.338,0,0.509l-2.915,3.484v24.547
			c0,2.581,1.995,4.393,5.984,5.431c0.878,0.223,1.123,0.76,0.734,1.615l-9.278,1.769c-1.416,0.025-2.777-0.564-4.092-1.775
			c-0.144,0.514-0.367,0.944-0.656,1.293c-1.953,2.318-4.12,2.759-6.502,1.311c1.995-0.425,2.991-1.375,2.991-2.833V61.317
			l-2.628-2.198c-0.195-0.11-0.195-0.28,0-0.513l2.628-3.132V43.201c-0.047-9.345-2.603-13.531-7.667-12.566l-1.027,0.269
			c-3.648,1.332-6.061,3.958-7.23,7.883c-1.219,4.277-0.27,8.555,2.848,12.828c-3.062-0.147-5.547-1.376-7.446-3.693
			C255.019,50.928,255.997,52.983,257.358,54.083z"/>
		<pattern  id="SVGID_9_" xlink:href="#_x31_0_lpi_40_x25_" patternTransform="matrix(0.2648 0 0 0.2648 -5680.8545 -5761.6831)">
		</pattern>
		<path fill="url(#SVGID_9_)" d="M314.999,46.154c-2.437,2.558-3.188,4.554-2.265,5.984c2.533-1.941,4.36-1.608,5.481,1
			c0.777,1.947,0,3.533-2.339,4.758c-2.385,1.186-4.235,1.001-5.554-0.547c-0.145-0.216-0.317-0.499-0.513-0.854v8.916
			c-0.044,1.278,0.023,2.479,0.221,3.61c-0.825,1.377-1.267,2.727-1.314,4.051c0.975-1.599,2.019-2.821,3.14-3.67
			c1.363-1.038,2.754-1.402,4.169-1.084c-2.484,1.934-3.291,4.037-2.417,6.303c0.829,2.229,2.512,3.343,5.045,3.349l-0.365-0.006
			c5.452,0.814,10.546-1.791,15.268-7.808c0.777-1.025,1.071-2.369,0.878-4.038c-0.195-1.717-0.954-2.643-2.263-2.784
			c0.969,1.568,0.483,2.759-1.464,3.567c-1.951,0.81-3.826,0.365-5.625-1.338c-1.999-1.856-1.95-4.424,0.146-7.698
			c1.51-2.235,3.652-3.156,6.429-2.763c2.73,0.358,4.896,1.819,6.503,4.387c2.092,3.303,2.359,7.537,0.801,12.706
			c-3.111,10.237-11.124,15.488-24.033,15.763c-3.702,0.414-6.943-0.381-9.716-2.384c-4.144-2.96-6.209-7.555-6.209-13.791V57.098
			l-3.07-2.483c-0.144-0.116-0.144-0.286,0-0.512l3.07-3.655V34.084c0-8.521,2.968-14.91,8.908-19.162
			c3.512-2.616,7.649-4.379,12.421-5.294c7.988-1.57,13.519,0.76,16.587,6.994c2.92,5.873,2.359,11.045-1.685,15.515
			c-1.898,2.556-6.208,5.666-12.928,9.335C318.312,43.65,315.877,45.21,314.999,46.154z M309.811,47.948
			c0.292-0.739,0.637-1.481,1.025-2.239c1.123-2.015,5.112-5.385,11.979-10.107c3.511-2.421,5.653-5.387,6.431-8.895
			c0.83-3.857-0.729-6.292-4.675-7.29c-1.462-0.209-2.949-0.099-4.455,0.338c-6.771,2.069-10.204,7.667-10.305,16.795V47.948z"/>
	</g>
</g>
<g>
	<g>
		
			<path fill="#303D57" stroke="#FFFFFF" stroke-width="0.8827" stroke-linecap="round" stroke-linejoin="round" stroke-miterlimit="10" d="
			M5.065,141.996c-0.193-0.695,0.17-1.324,1.094-1.889c4.239-2.612,6.6-5.277,7.089-8.002l4.675-25.66
			c-4.432,2.405-8.063,4.072-10.886,5c-0.439-2.349,0.12-4.526,1.68-6.53c-1.12-1.879-1.313-3.987-0.586-6.317
			c0.731-2.38,1.464-3.639,2.195-3.778c-0.34,1.139-0.365,1.994-0.075,2.57c0.244,0.638,1.071,0.94,2.484,0.917
			c1.802-0.199,4.167-0.918,7.089-2.158l10.008-55.243c0.487-2.67-1.048-4.573-4.602-5.695c-0.781-0.242-0.93-0.8-0.439-1.67
			l9.13-1.744c1.315-0.004,2.486,0.621,3.505,1.887c0.246-0.532,0.538-0.979,0.88-1.336c2.239-2.373,3.993-2.709,5.261-1.002
			c-2.047,0.731-3.215,1.854-3.509,3.375l0.804,4.083l0.876,4.652l0.294,1.257l7.158,36.773c2.678-1,4.772-1.448,6.282-1.346
			c5.553,0.451,8.84,3.332,9.863,8.637c0.292,2.916-0.975,5.424-3.797,7.518c-2.875,2.111-4.774,1.841-5.699-0.812
			c-1.268-3.506-0.122-6.112,3.432-7.814c-0.487-2.291-2.701-2.916-6.647-1.872c-0.536,0.153-1.34,0.501-2.413,1.044l7.964,40.855
			c1.998,8.628,4.117,13.898,6.358,15.809c2.094,1.744,3.823,1.901,5.184,0.473c-1.554-2.088-1.143-4.143,1.246-6.154
			c1.75-1.455,3.068-1.122,3.942,0.997c0.926,2.163,0.659,4.188-0.802,6.073c-2.68,3.384-6.089,4.424-10.227,3.119
			c-1.464-0.451-4.289-3.832-8.475-10.142c-0.097,0.162-0.17,0.298-0.221,0.405c-1.559,2.248-4.482,3.363-8.767,3.352
			c2.044-1.46,2.947-2.922,2.705-4.387l-0.73-3.73l-1.023-5.14c-1.998-10.184-4.312-22.068-6.942-35.644
			c-6.381,4.045-9.935,6.28-10.666,6.709l-4.749,26.038l-0.949,5.443l-0.731,4.083c-0.292,1.519,0.561,2.087,2.556,1.708
			c-2.972,2.512-5.236,2.942-6.792,1.294c-0.195-0.254-0.342-0.641-0.439-1.158c-1.559,1.808-3.045,2.944-4.459,3.404L5.065,141.996
			z M31.439,90.425c5.453-2.941,8.036-4.335,7.744-4.184c-0.731-3.705-1.949-9.902-3.654-18.588L31.439,90.425z"/>
		
			<path fill="#303D57" stroke="#FFFFFF" stroke-width="0.8827" stroke-linecap="round" stroke-linejoin="round" stroke-miterlimit="10" d="
			M72.644,129.469l-0.074-0.352v-0.221v-0.076l0.074-0.303l0.069-0.16l0.078-0.159l0.071-0.018l0.072-0.083l0.075-0.087v-0.077
			l0.145-0.102l0.147-0.098l0.143-0.103l0.076-0.014l0.149-0.101l0.071-0.085l0.143-0.029l0.074-0.089l0.22-0.114l0.074-0.011
			l0.218-0.117l0.145-0.028l0.076-0.085l0.143-0.029l0.222-0.116l0.145-0.099l0.075-0.089l0.143-0.024l0.147-0.104l0.072-0.086
			l0.147-0.029l0.147-0.1l0.071-0.088l0.147-0.102l0.147-0.1l0.145-0.102l0.074-0.087l0.147-0.103l0.147-0.098l0.147-0.101
			l0.069-0.089l0.145-0.1l0.147-0.172l0.074-0.087l0.147-0.103l0.145-0.174l0.073-0.085l0.147-0.178l0.072-0.083l0.148-0.176
			l0.072-0.16l0.073-0.161l0.145-0.099l0.074-0.161l0.075-0.16l0.145-0.248l0.074-0.161l0.073-0.159l0.07-0.162
			c0-0.048,0.023-0.122,0.077-0.23l0.07-0.159c0-0.052,0-0.124,0-0.223c0.05-0.056,0.075-0.11,0.075-0.158l0.074-0.232l0.071-0.234
			v-0.22c0-0.05,0.025-0.125,0.072-0.232l0.075-0.747v-0.22V95.223l-2.776-2.249c-0.197-0.11-0.197-0.279,0-0.511l2.776-3.307
			V31.515c0-2.583-1.999-4.391-5.994-5.434c-0.874-0.222-1.141-0.756-0.8-1.599l9.349-1.785c1.365-0.013,2.729,0.576,4.092,1.775
			c0.147-0.513,0.367-0.946,0.657-1.292c1.901-2.312,4.068-2.751,6.503-1.314c-2.044,0.438-3.067,1.39-3.067,2.852v32.728
			c2.775-4.814,6.501-7.668,11.178-8.56c6.329-1.208,11.153,0.255,14.465,4.397c2.239,2.887,3.264,5.468,3.068,7.744v20.678
			l2.777,2.167c0.191,0.162,0.191,0.333,0,0.514l-2.777,3.307v19.139c0.195,1.864-1.05,4.805-3.726,8.823
			c-3.558,5.354-8.162,8.591-13.808,9.72l-1.241,0.236c-4.047,0.822-7.357-1.007-9.937-5.481v2.484c0,1.462,1.023,2.021,3.067,1.679
			c-2.435,2.363-4.602,2.753-6.503,1.169c-0.29-0.24-0.51-0.585-0.657-1.046c-1.363,1.723-2.727,2.836-4.092,3.342L72.644,129.469z
			 M90.178,93.245v14.904c2.483,6.003,5.89,8.591,10.227,7.763c0.732-0.137,1.388-0.387,1.972-0.741
			c1.607-1.133,2.705-2.562,3.291-4.281c0.874-2.601,0.069-4.399-2.415-5.385c1.413-0.854,2.8-1.019,4.167-0.5
			c0.826,0.327,1.655,0.926,2.483,1.791v-0.145l-0.073-0.426l-0.074-0.278l-0.073-0.28l-0.074,0.016v-0.145l-0.071-0.06
			l-0.072-0.205l-0.073-0.131v-0.074l-0.074-0.062l-0.071-0.058v-0.143l-0.076-0.058l-0.073-0.06l-0.072-0.06v-0.073l-0.073-0.06
			v-0.071l-0.074-0.06l-0.071,0.014v-0.072l-0.147-0.118l-0.072-0.06v-0.074l-0.075-0.058l-0.074-0.06l-0.071-0.06l-0.074-0.06
			l-0.073-0.058l-0.072-0.06c-0.05-0.041-0.122-0.095-0.222-0.18c0.147-1.197,0.222-2.229,0.222-3.105V89.814l-2.852-2.305
			c-0.145-0.118-0.145-0.288,0-0.513l2.852-3.32V71.55c-0.05-9.337-2.629-13.524-7.746-12.545l-0.948,0.251
			c-3.705,1.34-6.114,3.966-7.233,7.883c-1.269,4.285-0.317,8.556,2.848,12.826c-3.8,0.481-6.308-1.305-7.523-5.358l0.071,0.787
			l0.074,0.57v0.076v0.218c0.487,2.732,1.314,4.596,2.484,5.59v5.261l2.848,2.229c0.147,0.168,0.147,0.34,0,0.512L90.178,93.245z"/>
		
			<path fill="#303D57" stroke="#FFFFFF" stroke-width="0.8827" stroke-linecap="round" stroke-linejoin="round" stroke-miterlimit="10" d="
			M145.335,76.875l2.485,2.013c0.193,0.155,0.193,0.325,0,0.508l-2.485,2.96v29.733c0,1.462,1.023,2.022,3.069,1.682
			c-2.388,2.352-4.556,2.74-6.503,1.164c-0.292-0.234-0.51-0.584-0.655-1.044c-1.367,1.723-2.73,2.833-4.092,3.341l-9.351,1.785
			v-0.149l-0.078-0.06v-0.582v-0.075l0.078-0.232l0.071-0.015v-0.072c0.147-0.272,0.389-0.512,0.729-0.721
			c3.995-2.568,5.99-5.138,5.99-7.721V85.062l-3.142-2.542c-0.143-0.116-0.143-0.286,0-0.507l3.142-3.674V50.87
			c0-2.58-1.995-4.392-5.99-5.432c-0.878-0.221-1.141-0.754-0.8-1.599l9.351-1.785c1.41-0.074,2.825,0.361,4.237,1.309
			c0.147-0.319,0.317-0.598,0.51-0.828c1.903-2.309,4.066-2.75,6.503-1.313c-2.046,0.439-3.069,1.388-3.069,2.85V76.875z
			 M145.993,23.492c0,5.308-2.287,8.399-6.868,9.271c-4.531,0.866-6.795-1.357-6.795-6.665c0-5.31,2.264-8.397,6.795-9.26
			C143.706,15.967,145.993,18.185,145.993,23.492z"/>
		
			<path fill="#303D57" stroke="#FFFFFF" stroke-width="0.8827" stroke-linecap="round" stroke-linejoin="round" stroke-miterlimit="10" d="
			M165.058,6.85c1.365-0.019,2.729,0.576,4.095,1.777c0.145-0.516,0.366-0.949,0.658-1.295c1.898-2.311,4.064-2.75,6.5-1.315
			c-2.045,0.437-3.066,1.391-3.066,2.85v62.539l2.627,2.127c0.195,0.16,0.195,0.329,0,0.512l-2.627,3.134v29.586
			c0,1.46,1.021,2.022,3.066,1.682c-2.436,2.361-4.602,2.752-6.5,1.166c-0.292-0.236-0.513-0.584-0.658-1.044
			c-1.367,1.721-2.73,2.831-4.095,3.337l-9.349,1.783c-0.336-0.711-0.073-1.352,0.805-1.905c3.995-2.564,5.988-5.135,5.988-7.719
			V79.589l-2.993-2.421c-0.147-0.12-0.147-0.29,0-0.514l2.993-3.496V15.663c0-2.58-1.994-4.389-5.988-5.43
			c-0.878-0.224-1.141-0.756-0.805-1.599L165.058,6.85z"/>
		
			<path fill="#303D57" stroke="#FFFFFF" stroke-width="0.8827" stroke-linecap="round" stroke-linejoin="round" stroke-miterlimit="10" d="
			M202.976,64.053c-2.437,2.556-3.19,4.55-2.263,5.982c2.533-1.943,4.356-1.613,5.48,1c0.775,1.947,0,3.535-2.338,4.757
			c-2.386,1.185-4.236,1.005-5.551-0.547c-0.149-0.214-0.321-0.5-0.512-0.853v8.91c-0.05,1.278,0.023,2.482,0.22,3.616
			c-0.829,1.373-1.266,2.722-1.318,4.049c0.978-1.597,2.019-2.823,3.142-3.67c1.365-1.037,2.751-1.402,4.165-1.085
			c-2.482,1.932-3.287,4.036-2.411,6.304c0.83,2.228,2.508,3.347,5.039,3.349l-0.363-0.004c5.457,0.81,10.543-1.794,15.27-7.808
			c0.777-1.024,1.072-2.369,0.875-4.039c-0.197-1.715-0.949-2.645-2.264-2.781c0.975,1.564,0.484,2.753-1.462,3.564
			c-1.947,0.812-3.821,0.365-5.625-1.336c-1.997-1.858-1.947-4.424,0.147-7.701c1.508-2.233,3.65-3.156,6.427-2.757
			c2.729,0.354,4.896,1.817,6.503,4.381c2.096,3.305,2.365,7.537,0.801,12.706c-3.111,10.24-11.125,15.494-24.029,15.765
			c-3.707,0.416-6.943-0.381-9.72-2.382c-4.138-2.96-6.21-7.558-6.21-13.792V74.995l-3.069-2.486c-0.143-0.114-0.143-0.284,0-0.511
			l3.069-3.652V51.982c0-8.525,2.968-14.912,8.916-19.164c3.508-2.614,7.644-4.379,12.419-5.292
			c7.984-1.568,13.512,0.756,16.582,6.99c2.924,5.872,2.363,11.046-1.678,15.519c-1.898,2.556-6.215,5.666-12.934,9.333
			C206.288,61.545,203.855,63.104,202.976,64.053z M197.792,65.842c0.292-0.733,0.632-1.481,1.023-2.239
			c1.12-2.015,5.114-5.381,11.98-10.101c3.506-2.425,5.65-5.389,6.428-8.898c0.83-3.859-0.729-6.292-4.674-7.292
			c-1.459-0.209-2.946-0.095-4.457,0.338c-6.771,2.071-10.206,7.67-10.3,16.799V65.842z"/>
		
			<path fill="#303D57" stroke="#FFFFFF" stroke-width="0.8827" stroke-linecap="round" stroke-linejoin="round" stroke-miterlimit="10" d="
			M253.168,51.405v4.457l2.997,2.35c0.144,0.168,0.144,0.338,0,0.51l-2.997,3.569v29.223c0,1.46,1.021,2.022,3.068,1.68
			c-2.436,2.365-4.604,2.751-6.502,1.166c-0.293-0.236-0.509-0.584-0.658-1.042c-1.361,1.723-2.729,2.833-4.089,3.337l-9.351,1.785
			c-0.341-0.711-0.072-1.35,0.8-1.906c3.995-2.562,5.991-5.136,5.991-7.717V63.976l-2.629-2.129c-0.193-0.11-0.193-0.28,0-0.51
			l2.629-3.13v-27.91c0-2.581-1.996-4.393-5.991-5.433c-0.872-0.221-1.141-0.754-0.8-1.599l10.663-2.036
			c2.97-0.08,4.63,1.212,4.97,3.873c1.312-3.465,5.207-5.816,11.69-7.052l0.292-0.054c0.191-0.039,0.46-0.064,0.801-0.08V17.84
			c6.33-1.208,11.129,0.265,14.395,4.414c2.288,2.875,3.338,5.451,3.143,7.729V50.51l2.92,2.293c0.143,0.168,0.143,0.338,0,0.51
			l-2.92,3.48v24.549c0,2.582,1.994,4.395,5.988,5.43c0.874,0.224,1.117,0.764,0.734,1.616l-9.279,1.77
			c-1.414,0.027-2.781-0.568-4.095-1.775c-0.144,0.515-0.365,0.946-0.657,1.296c-1.947,2.316-4.115,2.757-6.503,1.311
			c1.999-0.43,2.997-1.375,2.997-2.833V58.639l-2.631-2.201c-0.191-0.11-0.191-0.278,0-0.514l2.631-3.13V40.523
			c-0.047-9.345-2.608-13.533-7.672-12.566l-1.025,0.265c-3.65,1.334-6.062,3.962-7.231,7.885
			c-1.218,4.277-0.265,8.554,2.849,12.828c-3.065-0.145-5.549-1.375-7.449-3.693C250.832,48.248,251.805,50.305,253.168,51.405z"/>
		
			<path fill="#303D57" stroke="#FFFFFF" stroke-width="0.8827" stroke-linecap="round" stroke-linejoin="round" stroke-miterlimit="10" d="
			M310.812,43.476c-2.437,2.559-3.194,4.552-2.269,5.985c2.537-1.943,4.358-1.611,5.48,1c0.783,1.945,0,3.533-2.34,4.759
			c-2.382,1.183-4.234,1.001-5.554-0.549c-0.143-0.217-0.314-0.499-0.508-0.853v8.912c-0.047,1.278,0.024,2.483,0.222,3.612
			c-0.829,1.377-1.272,2.729-1.314,4.053c0.969-1.603,2.019-2.825,3.136-3.672c1.367-1.039,2.758-1.4,4.167-1.087
			c-2.484,1.936-3.289,4.04-2.411,6.308c0.83,2.229,2.508,3.341,5.045,3.347l-0.369-0.006c5.457,0.812,10.544-1.789,15.271-7.806
			c0.777-1.027,1.065-2.369,0.874-4.041c-0.197-1.713-0.949-2.64-2.265-2.781c0.975,1.566,0.485,2.759-1.461,3.567
			c-1.947,0.811-3.827,0.362-5.625-1.34c-2-1.856-1.947-4.424,0.148-7.698c1.505-2.233,3.648-3.154,6.426-2.761
			c2.728,0.354,4.896,1.82,6.502,4.386c2.097,3.3,2.363,7.537,0.801,12.706c-3.113,10.236-11.126,15.488-24.028,15.761
			c-3.707,0.416-6.943-0.377-9.721-2.382c-4.14-2.962-6.211-7.555-6.211-13.789V54.42l-3.068-2.485
			c-0.145-0.118-0.145-0.288,0-0.512l3.068-3.654V31.406c0-8.523,2.969-14.91,8.914-19.162c3.506-2.616,7.646-4.384,12.416-5.294
			c7.989-1.57,13.523,0.758,16.586,6.992c2.926,5.875,2.365,11.043-1.682,15.517c-1.899,2.555-6.205,5.666-12.929,9.335
			C314.121,40.97,311.685,42.528,310.812,43.476z M305.623,45.268c0.294-0.736,0.634-1.481,1.022-2.237
			c1.121-2.017,5.116-5.385,11.982-10.107c3.506-2.425,5.65-5.387,6.432-8.898c0.823-3.857-0.735-6.288-4.676-7.288
			c-1.462-0.209-2.949-0.097-4.459,0.34c-6.771,2.069-10.205,7.667-10.302,16.793V45.268z"/>
	</g>
</g>
</svg>
