<?xml version="1.0" encoding="utf-8"?>
<!-- Generator: Adobe Illustrator 15.0.2, SVG Export Plug-In . SVG Version: 6.00 Build 0)  -->
<!DOCTYPE svg PUBLIC "-//W3C//DTD SVG 1.1//EN" "http://www.w3.org/Graphics/SVG/1.1/DTD/svg11.dtd">
<svg version="1.1" id="Layer_1" xmlns="http://www.w3.org/2000/svg" xmlns:xlink="http://www.w3.org/1999/xlink" x="0px" y="0px"
	 width="15px" height="60px" viewBox="0 0 15 60" enable-background="new 0 0 15 60" xml:space="preserve">
<path fill="#3D2512" d="M8.828,58.354c0-0.599-0.396-1.099-0.94-1.265v-3.844c0.482-0.917,2.096-3.843,3.113-3.944
	c1.699-0.17,1.569,2.896,1.569,2.896s1.569-1.206,1.207-3.258c-0.355-2.01-3.602-1.692-5.89,2.745V47.47l0.94-1.79l-0.94-2.07V1.855
	c0-0.145-0.119-0.264-0.266-0.264S7.356,1.71,7.356,1.855v41.612l-1.183,1.973l1.183,2.069v4.448H7.26
	c-2.293-4.707-5.672-5.069-6.036-3.018c-0.361,2.052,1.209,3.258,1.209,3.258s-0.129-3.065,1.568-2.896
	c1.207,0.121,3.258,4.224,3.258,4.224h0.097v3.516c-0.664,0.072-1.183,0.629-1.183,1.313c0,0.732,0.596,1.326,1.329,1.326
	C8.235,59.681,8.828,59.087,8.828,58.354z"/>
<path fill="#3D2512" d="M6.393,2.389c0,0.599,0.396,1.099,0.94,1.265v3.844C6.851,8.414,5.237,11.34,4.22,11.441
	C2.521,11.611,2.65,8.546,2.65,8.546s-1.569,1.206-1.207,3.258c0.355,2.01,3.602,1.692,5.89-2.745v4.215l-0.94,1.79l0.94,2.07v0.913
	c0,0.145,0.119,0.264,0.266,0.264s0.266-0.119,0.266-0.264v-0.771l1.183-1.973l-1.183-2.069V8.786h0.097
	c2.293,4.707,5.672,5.069,6.035,3.018c0.361-2.052-1.209-3.258-1.209-3.258s0.129,3.065-1.568,2.896
	c-1.207-0.121-3.258-4.224-3.258-4.224H7.864V3.702C8.527,3.63,9.047,3.073,9.047,2.389c0-0.732-0.596-1.326-1.328-1.326
	C6.985,1.062,6.393,1.656,6.393,2.389z"/>
</svg>
